<svg width="16" height="16" viewBox="0 0 16 16" fill="none" xmlns="http://www.w3.org/2000/svg">
<path fill-rule="evenodd" clip-rule="evenodd" d="M2 9.5022C2.27614 9.5022 2.5 9.72606 2.5 10.0022C2.5 10.9591 2.50106 11.6265 2.56877 12.1301C2.63453 12.6193 2.75483 12.8783 2.93934 13.0629C3.12385 13.2474 3.3829 13.3677 3.87208 13.4335C4.37565 13.5011 5.04306 13.5022 6 13.5022H10C10.9569 13.5022 11.6243 13.5011 12.1279 13.4335C12.6171 13.3677 12.8761 13.2474 13.0607 13.0629C13.2452 12.8783 13.3655 12.6193 13.4313 12.1301C13.4989 11.6265 13.5 10.9591 13.5 10.0022C13.5 9.72606 13.7239 9.5022 14 9.5022C14.2761 9.5022 14.5 9.72606 14.5 10.0022V10.0388C14.5 10.9505 14.5 11.6854 14.4223 12.2634C14.3417 12.8635 14.1691 13.3687 13.7678 13.7699C13.3665 14.1713 12.8613 14.3439 12.2612 14.4245C11.6832 14.5022 10.9483 14.5022 10.0366 14.5022H5.96342C5.05169 14.5022 4.31681 14.5022 3.73883 14.4245C3.13876 14.3439 2.63351 14.1713 2.23223 13.77C1.83095 13.3687 1.65836 12.8635 1.57768 12.2634C1.49997 11.6854 1.49999 10.9505 1.5 10.0388C1.5 10.0266 1.5 10.0144 1.5 10.0022C1.5 9.72606 1.72386 9.5022 2 9.5022Z" fill="white"/>
<path fill-rule="evenodd" clip-rule="evenodd" d="M8 11.1689C8.1404 11.1689 8.27427 11.1099 8.369 11.0063L11.0357 8.0896C11.222 7.8858 11.2079 7.56953 11.0041 7.3832C10.8003 7.19686 10.484 7.211 10.2977 7.4148L8.5 9.381V2.0022C8.5 1.72606 8.27614 1.5022 8 1.5022C7.72387 1.5022 7.5 1.72606 7.5 2.0022V9.381L5.70236 7.4148C5.51602 7.211 5.19976 7.19686 4.99596 7.3832C4.79216 7.56953 4.77799 7.8858 4.96432 8.0896L7.631 11.0063C7.72574 11.1099 7.8596 11.1689 8 11.1689Z" fill="white"/>
</svg>
