<svg width="16" height="16" viewBox="0 0 16 16" fill="none" xmlns="http://www.w3.org/2000/svg">
<path d="M4.34541 16C3.28581 16 2.12024 15.5733 1.27256 14.72C0.424879 13.8667 0.0010376 12.8 0.0010376 11.6267C0.0010376 10.4533 0.424879 9.38668 1.27256 8.53335L3.28581 6.50668C3.49773 6.29335 3.81561 6.29335 4.02753 6.50668C4.23945 6.72001 4.23945 7.04001 4.02753 7.25335L2.01428 9.28001C1.37852 9.92001 1.06064 10.6667 1.06064 11.6267C1.06064 12.5867 1.37852 13.3333 2.01428 13.9733C3.28581 15.2533 5.40501 15.2533 6.57057 13.9733L8.58382 11.9467C8.79574 11.7333 9.11362 11.7333 9.32554 11.9467C9.53746 12.16 9.53746 12.48 9.32554 12.6933L7.3123 14.72C6.57057 15.5733 5.51097 16 4.34541 16Z" fill="white"/>
<path d="M12.3984 9.49333C12.2924 9.49333 12.0805 9.49333 11.9745 9.38667C11.7626 9.17333 11.7626 8.85333 11.9745 8.64L13.9878 6.61333C15.2593 5.33333 15.2593 3.30667 13.9878 2.02667C12.7163 0.746666 10.703 0.746666 9.43148 2.02667L7.41824 4.05333C7.20632 4.26667 6.88844 4.26667 6.67652 4.05333C6.4646 3.84 6.4646 3.52 6.67652 3.30667L8.68976 1.28C10.3851 -0.426667 13.0341 -0.426667 14.7295 1.28C16.4249 2.98667 16.4249 5.65333 14.7295 7.36L12.7163 9.38667C12.6103 9.49333 12.5043 9.49333 12.3984 9.49333Z" fill="white"/>
<path d="M4.34538 12.2666C4.23942 12.2666 4.0275 12.2666 3.92154 12.16C3.70962 11.9466 3.70962 11.6266 3.92154 11.4133L11.2328 4.05331C11.4447 3.83998 11.7626 3.83998 11.9745 4.05331C12.1864 4.26664 12.1864 4.58664 11.9745 4.79998L4.66326 12.16C4.66326 12.16 4.55731 12.2666 4.34538 12.2666Z" fill="white"/>
</svg>
