<svg width="16" height="16" viewBox="0 0 16 16" fill="none" xmlns="http://www.w3.org/2000/svg">
<path fill-rule="evenodd" clip-rule="evenodd" d="M8.93002 0.012967C9.32889 0.0329866 10.2736 0.0825291 10.5863 0.170848C11.0519 0.302395 11.4291 0.563017 11.7276 1.04945C11.9432 1.4673 12.1466 2.10683 12.2031 2.63441C12.2347 2.92921 12.2522 3.26028 12.2638 3.63091L12.281 9.43869H15.4232L15.4468 9.44177C15.4703 9.44287 15.4934 9.44568 15.5165 9.44997L15.5401 9.45202C15.5454 9.45325 15.5502 9.45678 15.5555 9.45817C15.572 9.46256 15.5882 9.46754 15.6044 9.47355C15.6208 9.47966 15.6367 9.48638 15.6524 9.49405C15.667 9.5012 15.6808 9.51013 15.695 9.51866C15.7091 9.52723 15.7232 9.53549 15.7366 9.54532C15.7495 9.55473 15.7615 9.56543 15.7738 9.57607C15.7883 9.58869 15.8029 9.60094 15.8163 9.61503C15.8265 9.6257 15.8358 9.63726 15.8453 9.64886C15.859 9.66538 15.8722 9.68207 15.8843 9.70012C15.8879 9.7055 15.8926 9.70996 15.896 9.7155C15.9003 9.72226 15.9029 9.73015 15.9069 9.73703C15.918 9.75627 15.9284 9.77591 15.9377 9.79649C15.9442 9.81075 15.9504 9.82496 15.9558 9.83955C15.9625 9.85725 15.9678 9.87543 15.973 9.89388C15.9788 9.91393 15.9836 9.93398 15.9875 9.95437C15.9907 9.97096 15.9936 9.98757 15.9957 10.0046C15.9981 10.0241 15.9994 10.0435 16.0002 10.063C16.0007 10.0736 16.0029 10.0841 16.0029 10.0948C16.0029 10.1031 16.0005 10.1112 16.0002 10.1194C15.9996 10.1391 15.9979 10.1584 15.9957 10.1779C15.9938 10.1945 15.9923 10.2109 15.9893 10.2271C15.9854 10.249 15.9799 10.2703 15.9739 10.2917C15.9697 10.3069 15.9656 10.322 15.9604 10.3368C15.9542 10.3543 15.947 10.3711 15.9395 10.388C15.9321 10.4048 15.9246 10.4213 15.916 10.4372C15.9076 10.4528 15.8984 10.4676 15.8888 10.4824C15.8792 10.4971 15.8695 10.5116 15.8589 10.5254C15.8547 10.5309 15.8516 10.5375 15.8471 10.5428L15.8281 10.5613C15.8111 10.5802 15.7927 10.5971 15.7738 10.6136L15.7584 10.63L10.6288 14.7421C9.67618 15.5056 8.87239 16 8.00293 16C7.24209 16 6.181 15.3482 5.37702 14.7421L0.260176 10.6402C0.258019 10.6386 0.255972 10.6368 0.253835 10.6351L0.247495 10.63L0.230285 10.6136C0.206969 10.5933 0.184476 10.572 0.164162 10.548L0.158727 10.5428C0.146252 10.5277 0.137138 10.5098 0.126118 10.4936C0.117421 10.4809 0.107716 10.4692 0.09985 10.4557C0.0809141 10.4232 0.0643353 10.3895 0.0509369 10.3542C0.0467374 10.3432 0.0437404 10.3317 0.0400674 10.3204C0.0310402 10.2924 0.0230185 10.2643 0.0174224 10.2353C0.015084 10.2232 0.0146319 10.2107 0.0128935 10.1984C0.00909387 10.1715 0.00648001 10.1447 0.00564709 10.1174C0.00542178 10.1099 0.00292973 10.1024 0.00292969 10.0948C0.00292969 10.0855 0.00530806 10.0764 0.00564709 10.0671C0.00660605 10.0414 0.00922513 10.0159 0.0128935 9.99025C0.0150007 9.97543 0.0162648 9.96064 0.019234 9.94617C0.0241877 9.92212 0.031729 9.89897 0.0391616 9.87543C0.0445886 9.85821 0.0488336 9.84069 0.0554659 9.82417C0.0632551 9.80479 0.073052 9.78652 0.0826398 9.76778C0.0910801 9.75129 0.0983647 9.73412 0.108002 9.71857L0.109814 9.7155C0.118319 9.70192 0.12867 9.69019 0.137893 9.67757C0.180335 9.61968 0.230798 9.57057 0.288256 9.53199C0.307808 9.5189 0.327421 9.50643 0.348038 9.49611C0.359213 9.49049 0.370925 9.48658 0.382459 9.48175C0.405152 9.47229 0.427811 9.46333 0.451299 9.45715C0.46351 9.45394 0.475944 9.45229 0.488437 9.44997C0.511582 9.44564 0.53471 9.44291 0.558183 9.44177C0.566324 9.44139 0.574416 9.43869 0.58264 9.43869H3.72485L3.74206 3.63091C3.7537 3.26028 3.77117 2.92921 3.80275 2.63441C3.86736 2.03143 3.99484 1.51255 4.2792 1.04945C4.57762 0.563019 4.95394 0.302396 5.4196 0.170848C5.83664 0.0530377 6.50933 0.0357636 7.06926 0.012967C7.61787 0.00172988 8.38151 -0.00948713 8.93002 0.012967ZM6.04731 13.6718C6.78627 14.2262 7.58692 14.6877 8.00293 14.6877C8.47838 14.6877 9.01986 14.4241 9.95855 13.6718L13.6017 10.751H11.1189C11.1189 10.751 11.1508 8.9417 11.1426 6.96502C11.1426 6.96502 11.2553 3.03278 10.8928 2.0626C10.5303 1.09242 11.2553 3.03278 10.8928 2.0626C10.5303 1.09242 9.9386 1.01822 8.93002 0.950729L7.06926 0.950818C6.0616 1.02134 5.64364 1.05756 5.28118 2.02774C4.91872 2.99793 4.90815 4.0413 4.88699 6.66244V10.751H2.4042L6.04731 13.6718Z" fill="#E5E7EB"/>
</svg>
