<svg width="493" height="500" viewBox="0 0 493 500" fill="none" xmlns="http://www.w3.org/2000/svg">
<path d="M247.383 0.547286C242.535 1.25041 242.261 1.40666 245.78 1.48479C247.383 1.52385 249.494 1.6801 250.471 1.79729C254.85 2.50041 247.578 3.2426 238.156 3.08635C235.146 3.00822 232.604 2.89104 232.487 2.81291C232.409 2.69572 232.565 2.42229 232.878 2.22697C233.895 1.52385 230.884 2.3051 229.281 3.12541C228.46 3.5551 227.796 3.94572 227.796 3.98479C227.796 4.02385 230.181 3.98479 233.074 3.90666C238.156 3.75041 238.352 3.75041 238.352 4.53166C238.352 5.58635 237.413 5.78166 232.135 5.78166C227.913 5.78166 227.717 5.82072 227.913 6.56291C228.108 7.3051 227.913 7.34416 223.925 7.34416C221.618 7.34416 219.585 7.50041 219.351 7.69572C218.882 8.16447 212.9 9.29729 211.023 9.29729C210.242 9.25822 209.186 9.02385 208.639 8.71135C207.036 7.81291 205.276 8.04729 201.21 9.68791C199.099 10.5082 195.893 11.602 194.095 12.0317C192.336 12.5004 190.498 12.9692 190.068 13.0863C189.364 13.2817 189.325 13.2426 189.873 12.6176C190.42 11.9926 190.381 11.9535 189.677 12.1488C189.247 12.266 187.761 12.6567 186.354 13.0082C184.946 13.3598 180.059 15.0785 175.485 16.7582C167.275 19.8442 163.639 20.7426 163.131 19.9223C162.857 19.4535 161.372 19.8442 156.876 21.5629C155.39 22.1489 153.982 22.5395 153.748 22.4614C153.513 22.3442 151.441 23.5942 149.095 25.1567C146.789 26.7582 144.795 28.0473 144.639 28.0473C144.482 28.0473 144.795 27.6176 145.303 27.0707C145.811 26.5239 146.124 26.0942 146.007 26.0942C145.89 26.0942 144.365 26.8754 142.606 27.852C140.846 28.8285 139.243 29.6098 139.048 29.6098C137.953 29.6098 122.002 40.7817 120.125 42.852L119.383 43.6723L121.22 42.852C122.237 42.4223 123.175 42.1489 123.292 42.227C123.37 42.3442 121.885 43.7114 119.93 45.2348C117.975 46.7582 116.372 48.2035 116.372 48.3989C116.372 48.9848 114.026 49.9614 113.245 49.727C111.016 49.0239 114.105 44.0239 117.936 42.1489C119.969 41.1332 127.71 35.6645 127.71 35.2348C127.71 34.8832 125.442 36.2504 121.963 38.7504C119.969 40.1567 118.014 41.3285 117.545 41.3285C117.115 41.3285 115.708 41.8364 114.417 42.5004C113.127 43.1254 111.798 43.6723 111.485 43.6723C110.508 43.6723 111.915 41.4457 113.792 40.1176C115.356 38.9457 121.572 35.4692 122.041 35.4692C122.158 35.4692 122.197 35.8207 122.041 36.2114C121.846 36.9145 121.924 36.9535 122.94 36.6801C124.7 36.1723 126.42 35.1567 130.994 32.0707C135.959 28.7114 137.875 27.6567 139.126 27.6567C139.634 27.6567 142.332 26.3676 145.147 24.8051C150.503 21.8754 152.223 20.7817 151.91 20.4692C151.832 20.352 149.291 21.6801 146.32 23.3989C141.159 26.3676 139.869 26.8754 141.003 25.5082C142.136 24.141 140.768 24.5317 136.272 26.8364C133.692 28.2035 131.463 29.1801 131.346 29.0629C131.033 28.7504 122.706 33.1254 117.936 36.0551C115.903 37.3051 112.58 39.6098 110.508 41.1723C106.911 43.8676 106.715 44.102 106.285 46.0551C106.012 47.1489 105.073 50.0785 104.174 52.5785L102.532 57.0707L97.9971 60.7817C90.0215 67.3832 84.6263 72.1879 78.7228 78.0082C75.556 81.1332 72.9757 83.516 72.9757 83.2817C72.9757 82.3442 76.4943 77.6176 79.8175 74.141C83.3361 70.4301 85.1736 68.7895 84.8608 69.6489C84.4699 70.7426 90.3343 64.9614 91.859 62.7348C92.5627 61.7192 93.501 60.8207 93.9702 60.7035C94.9867 60.4301 99.3654 56.1332 100.147 54.6098C101.125 52.7348 99.7173 52.4223 98.0753 54.141C97.4888 54.766 96.0423 55.6645 94.8694 56.1332C93.071 56.8364 92.6018 57.266 91.9763 58.5551C91.5462 59.5317 88.7313 62.6176 84.5872 66.7192C80.8731 70.352 77.8236 73.2426 77.7454 73.1645C77.6672 73.0864 78.41 71.7582 79.4265 70.1957C81.3422 67.266 85.0172 63.3989 86.3074 63.0082C87.2066 62.6957 87.2848 62.1879 86.4247 61.8754C86.0337 61.7192 85.0563 62.3832 83.6098 63.8285C82.3978 65.0395 80.9512 66.2504 80.4039 66.602C79.8566 66.9145 78.2145 69.0239 76.6898 71.2504C75.2041 73.516 72.6629 76.7973 71.1382 78.5551C69.5743 80.3129 67.3067 83.0864 66.0557 84.6879C64.8437 86.2895 61.3251 90.1567 58.2756 93.2817C52.6849 99.0629 50.3391 102.071 50.9646 102.696C51.5902 103.321 52.9585 101.954 56.9854 96.7582C59.1748 93.9457 61.0123 91.7582 61.1296 91.8754C61.2469 91.9926 60.8559 92.8129 60.2304 93.6723C58.041 96.7582 57.9237 96.9535 58.432 96.641C58.6665 96.4848 58.9011 96.5239 58.9011 96.7192C58.9011 97.4614 56.5945 100.196 54.2487 102.227C52.9194 103.399 51.4729 105.039 51.0037 105.938L50.2218 107.539L51.6293 106.211C52.4112 105.469 53.0367 105 53.0367 105.235C53.0367 105.43 52.1375 106.993 51.0428 108.672C48.9707 111.954 46.7814 116.055 46.7814 116.719C46.7814 117.735 47.7197 116.914 49.0489 114.727C51.6684 110.391 54.2487 106.563 54.5615 106.563C54.7569 106.563 54.796 107.032 54.7179 107.618C54.5224 108.672 54.5615 108.672 55.0697 107.93C55.3825 107.5 57.1027 104.688 58.9402 101.68C61.9506 96.641 62.2243 96.016 62.2634 93.9457C62.3416 92.0707 62.6152 91.2114 63.9445 89.0239C65.352 86.641 65.7429 86.2504 67.815 85.352C70.9427 83.9457 72.9757 83.9848 72.9757 85.4692C72.9757 86.2504 65.8211 93.2817 65.0392 93.2817C64.3355 93.2817 58.7838 105.235 58.8229 106.602C58.8229 107.5 58.3929 108.047 56.3599 109.688C53.154 112.188 48.8926 117.305 44.3965 123.985C42.4808 126.875 40.7997 129.493 40.6824 129.805C40.5651 130.079 40.7997 130.664 41.2297 131.094C41.9726 131.836 41.9726 131.875 40.2914 134.297C39.3531 135.625 38.5321 136.914 38.4539 137.188C38.063 138.282 37.8675 137.032 38.2194 135.508C38.4148 134.571 38.5321 133.75 38.4539 133.672C38.3757 133.594 36.6164 136.914 34.5052 141.055C32.3941 145.157 30.4002 148.75 30.1265 148.985C29.5792 149.414 28.4063 152.344 28.4063 153.204C28.4063 153.438 29.0318 152.5 29.7746 151.094C31.2603 148.36 32.4723 146.914 32.8241 147.461C32.9414 147.618 32.1986 149.805 31.1821 152.266C28.6408 158.438 26.8424 163.672 26.2951 166.641L25.8259 169.18L23.9102 169.219L21.9554 169.258L21.8772 167.305C21.76 164.961 22.4246 158.204 23.011 155.86C23.2456 154.961 23.3238 154.102 23.2456 153.985C22.9328 153.711 17.8504 166.758 15.661 173.438C13.1198 181.172 12.3769 181.211 13.9408 173.516C14.4099 171.368 14.8009 169.024 14.8791 168.282C15.0355 166.797 18.8278 157.5 19.6097 156.68C19.8834 156.407 20.5089 155 20.978 153.594C21.4863 152.149 22.7765 148.946 23.9493 146.407C25.0831 143.907 26.2169 140.977 26.4906 139.922C26.7251 138.868 27.1161 137.813 27.3507 137.618C27.7416 137.188 27.7416 137.266 26.647 141.914C25.8259 145.508 25.2004 149.766 25.3568 150.821C25.4741 151.485 25.7868 151.094 26.8033 149.141C27.7807 147.266 28.2108 145.782 28.4845 143.477C28.9927 138.633 29.7355 136.641 32.2768 133.204C35.4826 128.868 36.46 126.954 34.4661 128.829C33.9188 129.336 33.4887 129.61 33.4887 129.454C33.4887 129.102 35.5608 126.055 37.2029 123.946C38.9231 121.797 39.275 121.016 38.1021 122.071C36.4209 123.633 36.5382 123.047 38.493 120.508C39.5486 119.18 41.3079 116.758 42.4417 115.079C43.5755 113.438 45.3739 111.172 46.4686 110.039C47.9152 108.555 48.4625 107.618 48.5407 106.719C48.5798 106.055 49.1662 104.336 49.8309 102.891L51.0819 100.235L47.7197 103.282C43.2627 107.344 42.0117 108.907 38.1021 115.547C29.8137 129.649 26.3733 136.211 22.7374 144.883C21.6818 147.422 20.6262 149.375 20.4307 149.297C19.8834 149.102 16.5993 156.407 14.6836 162.032C13.0416 166.954 12.6115 169.883 12.0251 180.196C11.595 187.422 10.3439 194.571 9.24925 196.094C8.42824 197.188 7.91999 199.18 7.52903 202.657C7.25536 204.727 6.74711 206.172 6.39525 205.782C6.27796 205.664 6.35615 204.532 6.55163 203.282C6.98169 200.782 6.59073 199.844 5.69152 200.938C5.26147 201.446 5.18328 202.657 5.26147 206.211C5.41785 211.407 4.71412 216.875 3.9713 216.563C3.69763 216.485 3.30667 216.563 3.07209 216.797C2.64204 217.227 2.56385 217.149 2.09469 215.547C2.0165 215.235 1.70374 216.524 1.39097 218.477C0.68724 223.047 0.68724 230.664 1.43006 234.102C1.70374 235.586 1.97741 238.868 1.97741 241.329C1.97741 245.079 1.86012 246.211 1.0782 248.204C0.296281 250.274 0.218089 251.172 0.335377 254.571C0.374473 256.758 0.296281 258.516 0.139897 258.516C-0.251063 258.516 0.257185 266.719 0.68724 267.5C0.960912 267.969 1.00001 267.891 1.0391 267.188C1.0391 265.43 1.74283 266.407 2.0165 268.555C2.44656 272.305 3.77582 278.477 4.44045 279.961L5.10508 281.368L5.33966 278.438C5.53514 275.86 5.45695 275.391 4.71412 274.336C3.85401 273.125 3.81492 272.774 3.18938 263.008L2.9939 259.883L3.54125 262.657C4.0104 265.118 5.18328 268.164 5.53514 267.813C5.61333 267.774 5.45695 266.172 5.22237 264.258C4.9096 261.719 4.9096 260.547 5.26147 259.571C5.76971 258.125 5.49604 242.344 4.9096 240.352C4.67503 239.571 4.63593 240.391 4.75322 242.774C5.02689 246.954 4.44045 247.657 3.81492 243.946C3.15029 239.844 2.79842 223.633 3.38486 222.227C4.0104 220.664 4.47955 220.664 4.24497 222.188C4.08859 223.36 4.75322 224.688 5.33966 224.336C5.53514 224.219 5.76971 223.399 5.9261 222.461C6.08248 221.563 6.31706 220.664 6.43435 220.469C6.51254 220.274 7.25536 222.149 8.03728 224.571L9.44473 229.024L9.40564 237.227C9.36654 242.93 9.21016 245.704 8.89739 246.329C8.50643 247.032 8.50643 248.164 8.8583 251.602C9.13197 254.024 9.36654 258.36 9.44473 261.289C9.48383 264.297 9.71841 266.914 9.95298 267.344C10.1876 267.735 10.4221 267.852 10.4221 267.579C10.4221 266.485 11.2041 267.227 11.2041 268.36C11.2041 269.063 11.4777 271.289 11.7905 273.243C12.3769 276.758 12.3378 276.914 11.595 277.657C11.165 278.086 10.8131 278.75 10.8131 279.141C10.8131 279.532 10.5785 280.196 10.2658 280.625C9.71841 281.329 9.64021 281.25 8.8192 279.297C8.35005 278.164 7.91999 277.305 7.8418 277.383C7.76361 277.422 7.95909 278.555 8.27186 279.805C8.97558 282.774 8.97558 283.165 8.31095 282.891C7.37265 282.54 7.21626 284.063 7.68542 288.907C8.11547 292.813 8.31095 293.633 9.09287 294.493C9.83569 295.235 10.0312 295.899 10.0312 297.422C10.0312 300.274 10.8131 305.977 11.595 309.102C11.986 310.586 12.2596 311.875 12.1815 311.954C12.1424 312.032 11.0086 310.157 9.71841 307.813C7.68542 304.219 6.12158 301.993 6.12158 302.774C6.12158 302.891 7.02079 305.313 8.11547 308.165C9.56202 312.071 10.0703 313.829 9.99208 315.157C9.87479 317.071 10.7349 320.196 11.165 319.532C11.5168 318.946 15.7783 323.907 17.3421 326.719C18.0458 328.008 18.6323 328.711 18.6323 328.321C18.6323 327.032 16.6775 321.719 15.27 319.258C12.9634 315.118 13.8235 315.625 16.4429 319.961C17.8113 322.227 20.0397 325.625 21.4081 327.54C22.7374 329.415 24.3403 332.188 24.9267 333.711C26.256 337.11 28.2108 343.985 27.898 344.297C27.1161 345.118 24.4967 340.86 24.4967 338.711C24.4967 337.618 23.1283 338.36 22.9328 339.571C22.7374 340.664 22.6592 340.625 21.9945 338.594C21.6036 337.422 20.978 336.094 20.548 335.664C20.1179 335.235 18.6323 332.852 17.2248 330.391C15.8565 327.93 14.2535 325.352 13.7062 324.727L12.7288 323.555L13.3543 324.805C13.9799 326.133 15.2309 331.563 14.9573 331.836C14.8791 331.914 14.3317 331.133 13.7062 330.04C12.807 328.321 11.986 327.5 11.986 328.282C11.986 328.829 16.873 337.422 17.1857 337.422C17.3812 337.422 17.3812 337.071 17.2639 336.641C17.1466 336.211 17.1466 335.86 17.2639 335.86C17.4985 335.86 20.8999 342.852 21.4863 344.532C21.6427 344.922 21.5645 345.235 21.369 345.235C21.1344 345.235 20.978 345.039 20.978 344.844C20.978 344.336 19.5315 344.336 19.1796 344.883C18.8669 345.43 21.2126 347.852 22.3464 348.125C22.9328 348.282 23.402 348.829 23.7148 349.727C23.9493 350.469 24.4185 351.329 24.6922 351.641C25.0049 351.954 26.9597 355.157 29.0318 358.75C35.5608 370.079 39.9005 376.602 42.8327 379.375C44.8266 381.29 44.592 380.274 42.3635 377.422C40.0178 374.454 38.5712 371.954 38.5712 370.977C38.5712 370.625 37.7893 369.688 36.8119 368.907C35.8345 368.086 34.3489 366.211 33.4106 364.649C31.4167 361.211 29.4228 356.602 29.8137 356.25C29.9701 356.094 30.1265 356.172 30.2047 356.368C30.8302 358.086 35.8345 364.727 39.3531 368.555C42.2462 371.641 44.6702 374.766 46.7814 378.125C48.5016 380.821 49.909 383.243 49.909 383.477C49.909 383.711 49.5963 383.75 49.2444 383.633C48.6971 383.438 48.7362 383.633 49.5181 384.922C51.7466 388.672 54.8351 392.383 60.8559 398.555C67.7759 405.704 71.0209 409.336 71.0209 409.961C71.0209 410.196 71.881 411.719 72.9757 413.36C74.0313 415 74.9305 416.563 74.9305 416.836C74.9305 417.93 79.9347 422.149 84.5872 424.961C86.4638 426.133 88.5359 427.93 90.9598 430.586C93.7356 433.594 95.104 434.766 96.9806 435.665C98.3098 436.329 100.617 437.852 102.102 439.024C103.627 440.196 106.403 442.383 108.279 443.829C110.195 445.313 111.837 446.758 111.954 447.071C112.228 447.735 114.887 449.141 115.903 449.141C116.802 449.141 120.282 451.329 120.282 451.875C120.282 452.657 130.408 458.711 131.268 458.438C131.502 458.36 130.603 457.5 129.235 456.563C127.905 455.625 127.006 454.766 127.241 454.688C127.749 454.532 135.529 458.477 137.093 459.688L138.07 460.469H137.015C136.389 460.469 135.92 460.586 135.92 460.782C135.92 460.938 137.054 461.836 138.461 462.774C139.869 463.711 141.003 464.649 141.003 464.844C141.003 465.313 147.414 468.282 151.715 469.805C156.172 471.368 161.059 472.618 169.543 474.297C173.296 475.04 178.417 476.29 180.88 477.071C191.866 480.547 205.237 483.477 213.33 484.219C215.363 484.415 219.077 484.493 221.54 484.415C225.997 484.219 226.036 484.219 226.975 485.235C227.6 485.899 228.343 486.25 229.125 486.25C230.181 486.29 230.22 486.329 229.633 486.68C229.125 486.993 227.248 486.875 222.791 486.29C219.429 485.821 216.145 485.469 215.48 485.508L214.308 485.547L215.402 485.977C217.318 486.719 216.536 487.032 212.666 487.032C209.342 487.071 208.912 487.11 209.538 487.579C210.085 488.008 210.593 488.047 211.688 487.735C213.33 487.266 218.686 487.54 224.981 488.399C230.22 489.102 239.094 489.844 239.524 489.571C239.72 489.454 241.127 489.336 242.73 489.336C245.467 489.297 249.689 490.118 251.527 491.016C252.113 491.329 254.772 491.368 259.933 491.211C266.579 490.977 269.081 490.743 276.157 489.571C277.096 489.415 277.721 489.102 277.604 488.907C277.487 488.711 277.565 488.321 277.838 488.008C278.19 487.618 278.112 487.383 277.604 487.11C276.861 486.719 277.057 486.641 284.211 485.235C287.143 484.688 287.886 484.649 289.176 485.079C290.036 485.352 290.623 485.704 290.545 485.899C290.427 486.055 289.294 486.29 287.964 486.446C286.4 486.641 285.736 486.875 285.97 487.11C286.4 487.54 287.847 487.266 293.047 485.86C294.65 485.43 296.018 485.157 296.096 485.235C296.214 485.313 295.08 485.782 293.672 486.25C292.265 486.719 291.131 487.188 291.209 487.266C291.287 487.344 292.499 487.11 293.868 486.797C295.275 486.485 300.71 485.43 305.988 484.454C320.688 481.797 318.537 482.657 336.287 472.774C340.587 470.391 345.787 467.852 347.82 467.11C349.853 466.368 355.131 463.946 359.588 461.758C364.162 459.532 367.759 457.969 367.837 458.204C367.916 458.438 370.183 457.266 372.881 455.586C383.358 448.946 385.118 447.969 386.33 447.969C387.229 447.969 388.206 447.422 390.083 445.899C391.451 444.766 395.4 441.641 398.84 439.024C405.213 434.102 406.816 432.618 403.61 434.493C402.594 435.04 401.616 435.43 401.421 435.274C401.186 435.157 399.818 436.25 398.371 437.696C396.417 439.649 395.205 440.508 393.758 440.977C392.077 441.524 391.06 441.641 391.647 441.211C391.92 440.977 401.538 433.047 402.281 432.383C402.867 431.915 403.063 431.875 403.297 432.305C403.532 432.657 403.727 432.696 403.884 432.383C404.04 432.149 403.962 431.954 403.688 431.954C403.336 431.954 403.336 431.836 403.688 431.407C403.923 431.094 404.118 430.704 404.079 430.547C403.923 429.649 404.236 429.18 405.487 428.243C406.19 427.657 407.129 427.149 407.52 427.11C407.911 427.032 409.592 425.352 411.312 423.321C417.294 416.133 420.617 412.383 420.812 412.54C421.086 412.813 419.952 414.805 418.388 416.915C416.981 418.75 417.137 418.868 418.975 417.344L419.952 416.524L419.17 417.5C418.779 418.047 416.903 420.04 415.065 421.993C410.726 426.485 408.028 429.61 408.028 430.04C408.028 432.696 422.884 416.055 430.391 405C431.759 402.969 433.87 400.313 435.043 399.141C436.255 397.969 438.797 394.61 440.751 391.719C444.7 385.821 447.554 382.461 448.844 382.11C450.682 381.68 459.791 365.157 462.762 356.954C463.74 354.219 464.522 352.774 465.734 351.446C467.376 349.649 470.582 343.868 470.582 342.696C470.582 342.227 470.347 342.11 469.8 342.305C469.291 342.461 468.94 342.344 468.822 341.993C468.47 341.172 470.464 335.391 471.872 333.008C473.396 330.508 480.121 313.868 480.746 311.094C481.137 309.297 480.981 308.321 480.395 308.711C480.199 308.79 479.847 309.961 479.574 311.25C479.3 312.54 478.831 313.907 478.518 314.258C478.01 314.883 478.01 314.766 478.205 313.086C478.362 312.071 479.065 309.258 479.808 306.836C481.724 300.743 481.528 301.211 481.88 301.836C482.115 302.188 482.349 301.719 482.662 300.352C483.327 297.266 484.969 285.352 485.438 280.391C485.907 275.039 485.907 263.321 485.438 260.86C485.125 259.336 485.125 259.454 485.243 261.836C485.36 263.321 485.282 265.196 485.086 265.938L484.773 267.305L484.461 265.235C483.991 261.914 483.679 263.321 483.796 268.282C483.913 271.289 483.796 272.969 483.522 273.125C483.249 273.321 483.092 272.891 483.092 271.875C483.092 269.297 482.623 265.547 482.31 265.743C482.154 265.86 481.802 266.758 481.528 267.774L481.02 269.649L480.707 268.282C480.551 267.539 480.043 263.321 479.574 258.907C479.104 254.493 478.557 250.547 478.362 250.118C478.127 249.61 478.088 253.086 478.283 259.688C478.713 275.821 478.635 281.329 477.892 284.844C477.267 287.774 476.368 289.219 475.547 288.711C475.351 288.594 475.312 289.024 475.429 289.649C475.586 290.313 475.508 292.305 475.273 294.102C475.038 295.899 474.687 298.711 474.53 300.313C474.1 304.141 472.536 309.844 472.067 309.375C471.872 309.18 471.676 308.008 471.637 306.797C471.598 305.586 471.481 304.844 471.324 305.079C471.168 305.352 470.23 308.907 469.252 313.008C465.147 329.688 461.472 340.391 455.921 351.68C452.128 359.414 447.906 366.602 447.202 366.446C447.007 366.407 446.342 367.461 445.756 368.789C444.544 371.563 440.986 376.954 437.78 380.977C433.91 385.86 429.374 390.938 428.905 390.938C428.241 390.938 424.722 395.079 420.734 400.508C414.518 408.985 413.189 410.625 410.335 413.516C408.458 415.469 407.442 416.25 407.246 415.899C406.777 415.196 401.069 419.375 396.495 423.75C389.027 430.938 375.578 440.899 362.755 448.711C359.627 450.665 358.65 451.094 358.22 450.743C357.555 450.196 356.187 450.704 347.938 454.61C343.481 456.719 341.369 457.5 339.493 457.735C336.873 458.047 331.908 460.118 330.227 461.602C329.68 462.071 329.523 462.383 329.836 462.266C336.404 460.079 336.991 460.625 330.813 463.125C327.999 464.258 324.832 465.782 323.776 466.485C322.134 467.579 321.274 467.852 318.733 468.086C315.957 468.321 315.527 468.477 314.393 469.649C312.868 471.133 310.093 472.188 307.669 472.188C306.3 472.188 305.753 472.383 305.088 473.204C304.502 473.868 303.446 474.375 301.882 474.727C300.631 475.04 299.498 475.235 299.459 475.157C299.38 475.079 300.358 474.258 301.687 473.321C304.658 471.133 303.915 470.938 298.989 472.579C294.767 473.946 294.728 473.985 295.588 473.008C295.94 472.618 297.582 471.719 299.185 471.016C300.788 470.313 302.039 469.649 301.922 469.571C301.374 469.024 294.376 470.625 287.847 472.774C283.742 474.141 278.972 475.508 277.252 475.86C274.359 476.446 267.986 477.266 266.422 477.266C265.289 477.266 265.641 476.563 266.892 476.29C268.338 475.977 268.69 475.469 267.791 475C267.322 474.766 265.054 475.04 261.223 475.782C255.749 476.797 254.928 476.836 248.907 476.641C245.232 476.485 240.697 476.055 238.352 475.625C235.81 475.157 231.158 474.766 226.036 474.532C221.54 474.375 216.849 474.024 215.676 473.75C213.174 473.204 204.885 469.375 203.869 468.282C203.048 467.383 198.63 465.938 192.531 464.571C188.504 463.633 183.695 462.344 182.092 461.719C181.741 461.602 182.249 462.422 183.187 463.516L184.868 465.586L188.661 465.469C191.006 465.391 193.118 465.547 194.251 465.899C197.223 466.758 196.558 467.266 192.922 466.954C191.124 466.836 187.957 466.602 185.846 466.446C182.483 466.25 181.741 466.055 179.981 465C178.887 464.336 177.362 462.969 176.619 461.954C175.407 460.313 174.899 460 171.341 458.711C169.152 457.891 162.662 454.961 156.915 452.188C147.688 447.774 145.89 447.032 142.058 446.172C136.272 444.922 132.597 443.047 126.733 438.36C121.259 433.985 120.673 433.633 120.673 434.493C120.673 435.118 120.282 435.079 118.444 434.415C118.171 434.297 117.936 434.415 117.936 434.649C117.936 435.469 116.02 433.868 114.808 432.032C114.105 430.977 113.635 429.766 113.635 428.985C113.635 427.852 113.479 427.657 112.189 427.227C111.094 426.875 108.866 424.883 103.861 419.883C97.137 413.165 97.0588 413.086 100.03 415.157C101.711 416.29 103.197 417.11 103.353 416.993C103.783 416.563 103.001 415.977 97.4888 412.579C92.6018 409.532 90.9207 408.75 92.9537 410.43C93.4619 410.86 93.6574 411.211 93.3838 411.25C92.3673 411.25 87.9103 406.211 85.6428 402.422C84.3917 400.313 83.3752 398.321 83.3752 398.086C83.4143 397.813 82.1241 396.329 80.4821 394.766C67.4631 382.305 64.8437 379.727 64.57 379.024C64.4136 378.594 63.9836 377.891 63.5926 377.461C62.6152 376.368 57.7282 366.914 57.7282 366.133C57.7282 365.157 55.4998 360.977 54.4051 360C53.2322 358.907 48.5798 348.946 44.2401 338.204C40.917 330 35.6781 315.196 35.9909 314.844C36.1082 314.766 37.2029 315.313 38.4539 316.055C39.705 316.836 43.1454 318.75 46.1167 320.352C51.4338 323.243 51.5511 323.321 52.5285 325.391C53.154 326.641 53.545 328.243 53.5841 329.415C53.6623 331.875 55.9689 336.68 59.253 341.289C60.5822 343.125 61.8724 345.391 62.1852 346.563C62.928 349.024 65.2738 353.086 67.8932 356.368C68.9488 357.735 69.848 358.946 69.848 359.063C69.848 359.922 68.8315 358.868 66.7594 355.821C65.4692 353.907 64.14 352.266 63.8272 352.149C63.5144 352.032 62.9671 351.329 62.5761 350.625C61.3642 348.243 56.0862 339.336 55.9298 339.454C55.8516 339.532 56.1644 340.704 56.5554 342.032C57.7282 345.743 58.1583 349.024 57.65 350.118C57.2982 350.899 57.4546 351.329 59.0575 353.399C60.895 355.782 62.4589 356.68 63.319 355.821C64.7264 354.414 67.1504 356.993 70.7081 363.672C73.0539 368.047 73.2493 368.321 74.9305 368.946C77.4717 369.883 79.0355 371.407 77.4717 371.407C77.1589 371.407 76.8853 371.563 76.8853 371.719C76.8853 372.227 78.9573 374.961 80.2084 376.094C81.6941 377.461 85.0954 382.149 85.0954 382.813C85.0954 383.125 85.3691 383.711 85.6819 384.141C86.4247 385.118 86.4247 385.508 85.6819 385.235C85.33 385.079 85.0954 385.235 85.0954 385.625C85.0954 386.368 89.1223 390.391 90.1779 390.743C91.0771 391.016 92.6409 390.274 92.3282 389.727C91.859 389.024 92.7191 389.415 93.7747 390.43C94.3612 391.016 94.8694 391.29 94.8694 391.094C94.8694 390.86 94.2439 390.118 93.501 389.375C92.7582 388.633 92.1327 387.852 92.1327 387.618C92.1327 386.915 87.7539 380.938 84.0789 376.68C78.801 370.547 70.6299 358.672 70.4344 356.836C70.3562 356.368 69.4961 354.571 68.4405 352.852C66.2121 349.102 62.4589 341.289 58.3147 331.875C55.7734 326.016 55.1479 324.922 54.2096 324.532C53.4277 324.219 52.8412 323.438 52.0593 321.524C51.4338 320.157 50.3782 318.399 49.6745 317.618C48.4625 316.368 48.3061 316.29 46.625 316.524L44.8266 316.797L43.6928 314.219C42.0508 310.625 41.6207 308.907 42.2853 308.907C42.95 308.907 41.9726 306.407 40.4087 304.102C39.8614 303.321 39.314 301.993 39.1577 301.172C38.884 299.61 37.8284 297.383 37.7893 298.36C37.7893 298.672 37.9457 299.532 38.1412 300.235C38.3366 300.899 38.3757 301.485 38.1803 301.485C38.0239 301.485 37.672 300.665 37.4374 299.61C37.1638 298.594 36.2646 296.68 35.4045 295.391C34.5443 294.063 33.6842 292.383 33.4887 291.68C32.785 289.336 32.2768 284.18 32.7068 283.75C33.2933 283.165 34.2316 284.258 34.7007 286.094C35.3263 288.594 35.9909 288.282 35.639 285.665C35.3263 282.93 35.9518 282.852 36.5382 285.547C36.7728 286.68 37.2811 289.102 37.6329 290.899C38.3757 294.375 38.8058 295.079 42.5199 297.969C43.9665 299.102 44.1228 299.18 43.5755 298.36C41.7771 295.821 40.917 294.102 40.6824 292.579C40.5651 291.68 40.5651 290.938 40.7606 290.938C41.2688 290.938 40.7606 280.821 40.1742 279.336C39.705 278.125 39.6659 278.086 38.7276 278.711C38.1021 279.102 37.7111 279.844 37.5547 280.86C37.0856 283.555 36.4991 281.836 36.46 277.774C36.46 275.274 36.6164 273.633 36.9683 273.008C37.3983 272.188 37.3983 272.032 36.851 271.719C36.1473 271.329 35.9909 268.594 36.5773 267.032C36.8119 266.407 36.7728 265.782 36.4209 265.196C35.7954 264.024 35.5999 264.375 35.0526 267.657C34.6616 269.688 34.6616 270.977 35.0526 273.399C35.5217 276.329 35.4826 276.563 34.818 277.071C33.7624 277.852 33.0587 277.032 32.5113 274.258C31.964 271.719 32.0813 271.133 33.0196 271.875C33.5278 272.305 33.5669 272.227 33.3715 271.211C32.785 268.438 32.6286 258.125 33.0587 253.633C33.3324 251.055 33.6842 248.789 33.8406 248.633C33.997 248.477 34.2707 250.196 34.388 252.5C34.5052 254.805 34.818 256.875 35.0526 257.11C35.5608 257.618 35.5608 253.633 35.0135 250.508C34.818 249.219 34.5443 247.539 34.4271 246.797L34.2316 245.43L34.8962 246.563C35.4435 247.579 35.5999 247.618 35.9127 247.032C36.1082 246.68 36.2646 245.821 36.2255 245.118C36.1864 244.414 36.1473 241.954 36.1082 239.61C36.1082 236.446 35.9909 235.586 35.7172 236.289C35.3263 237.188 35.3263 237.149 35.0135 235.664C34.5834 233.438 34.5834 227.227 35.0526 222.539C35.4435 218.633 36.7728 210.313 37.2811 208.711L37.5156 207.93L37.8284 208.711C38.0239 209.141 38.063 211.524 37.9066 213.985C37.7502 217.774 37.7893 218.399 38.2194 217.969C38.6494 217.579 38.7667 215.938 38.8058 211.133C38.8449 204.336 39.6659 199.766 40.7215 200.196C41.0734 200.313 41.6989 199.532 42.4417 197.969C43.5755 195.743 43.6537 195.196 43.6928 191.368C43.7319 185.821 44.0447 184.063 45.9995 179.063C47.1332 176.094 47.6415 174.102 47.7197 172.422C47.7979 171.016 48.2279 169.102 48.8144 167.696C50.3 164.102 55.6562 154.493 55.8516 155.079C55.9689 155.352 56.4381 154.844 56.8681 153.946C57.5328 152.696 61.3251 143.829 63.0844 139.454C63.2017 139.18 63.5144 139.024 63.7881 139.141C64.14 139.258 64.4527 138.711 64.7655 137.5C65.0001 136.524 65.8211 134.375 66.5639 132.774C68.1278 129.414 68.0496 128.711 66.4857 131.407C65.8602 132.461 63.9836 135.157 62.2634 137.422C60.2695 140.079 58.2756 143.321 56.7117 146.602C55.3434 149.375 54.2096 151.485 54.2096 151.289C54.2096 150.352 55.5389 145.391 57.22 140.039C58.7838 135.118 59.2921 133.985 60.7386 132.305C62.0679 130.743 62.4198 130.039 62.4198 128.868C62.4198 126.563 63.5144 123.438 64.4918 122.93C64.961 122.657 65.5865 122.188 65.8602 121.836C68.0105 119.141 69.8089 115.938 71.3727 112.071C73.1711 107.539 76.4943 102.266 77.5499 102.266C78.41 102.266 77.1198 105 72.4283 113.008C70.3171 116.68 69.6134 118.125 70.0435 118.204C70.4735 118.321 70.1608 119.141 68.7924 121.641C67.7759 123.555 67.1504 125.118 67.3458 125.313C67.9323 125.86 68.9097 124.844 69.457 123.164C70.1608 121.016 71.3727 119.336 72.0765 119.61C72.4674 119.766 72.9366 119.18 73.6403 117.579C74.6177 115.508 78.2536 110.469 79.2701 109.844C79.5438 109.688 79.8957 109.883 80.0911 110.235C80.6385 111.172 81.0294 111.016 83.1015 109.102C84.118 108.125 85.0954 107.344 85.2127 107.344C85.3691 107.344 85.0172 107.969 84.509 108.75C83.9616 109.532 83.5316 110.469 83.5316 110.821C83.4925 111.172 82.2805 112.93 80.7949 114.766C78.019 118.086 77.4717 119.219 78.7228 118.985C80.1693 118.711 89.7478 103.438 91.3508 98.9457C91.7026 97.891 91.5853 97.9692 90.1388 99.6098C88.4968 101.524 87.8321 101.914 87.8321 100.938C87.8321 100.625 87.363 100.313 86.8156 100.235L85.7991 100.118L87.2848 98.6332C88.0667 97.852 88.9659 97.1879 89.2787 97.1879C89.5524 97.1879 89.7869 96.9145 89.7869 96.5629C89.7869 96.2504 90.3343 95.1957 90.9598 94.2582C91.6244 93.3207 92.1327 92.4223 92.1327 92.227C92.1327 92.0707 93.1492 91.4848 94.3612 90.977C95.5731 90.4301 99.1309 88.3598 102.259 86.3285C105.386 84.2973 108.905 82.1879 110.039 81.602C112.072 80.6254 112.15 80.6254 112.658 81.3285C113.323 82.227 112.932 82.5004 123.605 74.102C132.245 67.3442 138.696 62.5785 142.801 60.0004C146.593 57.5785 146.789 57.5004 145.811 58.5942C145.303 59.102 144.912 59.6489 144.912 59.766C144.912 60.2739 151.832 57.3051 153.787 55.9379C154.921 55.1567 156.485 53.7114 157.267 52.7348C159.456 49.9614 161.411 47.9692 161.763 48.1645C161.919 48.2817 164.304 47.6567 167.041 46.7973C169.816 45.9379 172.514 45.2348 173.022 45.2348C173.57 45.2348 176.502 43.7504 179.59 41.9145C185.377 38.3989 187.761 37.3051 192.492 35.8598L195.307 35.0004L197.144 36.0942C198.669 36.9926 199.412 37.1879 201.562 37.1489C203.713 37.1489 204.573 36.9145 206.879 35.7426C209.108 34.6098 210.906 34.102 216.458 33.0864C220.211 32.3832 224.824 31.7973 226.701 31.7192C230.728 31.641 232.565 31.2504 232.37 30.6645C232.292 30.391 231.744 30.1567 231.197 30.0785C230.611 30.0004 230.141 29.8051 230.141 29.6098C230.141 29.2973 234.442 28.6332 235.81 28.7895C236.24 28.8285 239.212 28.3207 242.457 27.6567C245.662 26.9926 250.315 26.2114 252.739 25.8989C258.017 25.1957 267.126 25.1176 267.517 25.7426C267.634 25.977 268.534 26.5239 269.511 26.9535C270.449 27.3442 271.114 27.852 270.997 28.0864C270.645 28.6332 267.361 28.516 267.009 27.9301C266.071 26.3285 260.089 25.6645 254.811 26.5239C252.465 26.9145 252.152 27.0707 252.348 27.7348C252.465 28.2035 252.113 28.9067 251.41 29.6879L250.276 30.8598L252.035 30.5473C253.013 30.352 257.939 30.2739 262.982 30.391C271.192 30.5473 282.843 30.5473 288.785 30.391C293.555 30.2739 314.55 35.1567 322.134 38.1645C323.737 38.8285 325.379 39.2973 325.77 39.2973C326.748 39.2192 334.215 43.2426 333.941 43.6723C333.824 43.8676 334.293 44.3364 334.997 44.6879C336.873 45.6254 339.688 47.6176 339.493 47.8129C339.18 48.1645 334.176 46.8364 332.534 45.977C331.635 45.5473 330.813 45.2739 330.696 45.391C330.423 45.7035 330.501 45.7426 332.768 46.9145C334.919 48.0473 334.371 48.2817 331.791 47.3832C330.853 47.0707 330.032 46.8364 329.953 46.9535C329.875 47.0317 332.143 47.9301 334.997 48.9457C341.018 51.0942 341.878 51.4848 343.598 53.0082C344.458 53.7114 345.865 54.3364 347.82 54.766C353.997 56.2504 360.487 59.4535 364.045 62.7739C364.905 63.5942 366.274 64.6489 367.095 65.1176C367.876 65.6254 368.541 66.2114 368.58 66.4457C368.58 66.7192 370.3 68.0082 372.372 69.3754C375.266 71.2504 375.813 71.5239 374.601 70.4301C373.272 69.2192 373.154 69.0629 374.015 69.2973C375.657 69.727 377.963 71.0551 379.019 72.1098C379.879 72.9301 380.544 73.1254 383.046 73.3598C385.274 73.5551 386.525 73.9067 387.854 74.6879C390.122 76.016 397.316 82.1098 397.902 83.2035C398.293 83.9067 398.215 83.9457 397.394 83.7114C396.925 83.5551 394.618 82.5395 392.272 81.4457C389.966 80.391 387.972 79.5707 387.854 79.727C387.737 79.8442 388.324 80.3129 389.184 80.7426C391.92 82.1489 400.209 89.3364 400.209 90.352C400.209 90.5473 400.991 91.2504 401.968 91.8364C402.946 92.4614 404.392 93.7504 405.252 94.6879C406.073 95.6254 407.051 96.4067 407.363 96.4067C407.715 96.4067 409.201 96.8754 410.726 97.4223C413.228 98.3598 413.775 98.7895 416.864 102.11C418.701 104.141 420.109 105.782 419.952 105.782C419.796 105.782 420.578 106.758 421.672 107.969C424.331 110.86 424.214 111.563 421.516 108.907C420.343 107.735 419.366 106.954 419.366 107.188C419.366 108.008 421.164 110.274 422.454 111.055C423.158 111.485 424.878 112.852 426.325 114.063C429.14 116.524 429.726 116.797 429.335 115.43C429.101 114.61 429.101 114.61 429.883 115.547C430.313 116.094 431.407 117.852 432.268 119.493C433.128 121.133 434.066 122.696 434.418 122.969C435.356 123.75 435.122 124.18 434.027 123.672C433.479 123.438 432.971 123.321 432.854 123.438C432.737 123.555 433.519 125.118 434.652 126.914C438.015 132.383 437.78 132.11 438.171 131.524C438.327 131.211 438.406 130.547 438.249 130C438.015 128.946 438.21 129.063 439.696 130.977C440.517 132.071 440.556 132.11 440.282 131.172C439.891 129.766 444.192 136.289 445.99 139.844C446.811 141.524 447.515 143.164 447.515 143.477C447.515 143.829 448.023 144.844 448.649 145.743C449.235 146.641 451.307 150 453.184 153.243C455.06 156.446 457.25 160.079 458.032 161.25C459.244 163.125 459.439 163.282 459.556 162.5C459.635 161.993 459.439 161.289 459.126 160.938C458.814 160.586 458.071 159.336 457.484 158.164C456.702 156.563 456.585 156.133 457.054 156.289C457.563 156.485 457.68 156.289 457.68 155.313C457.68 154.141 457.719 154.102 458.423 154.766C459.596 155.86 461.824 160.664 463.505 165.782C464.991 170.43 466.946 174.805 467.297 174.414C467.415 174.297 466.672 171.524 465.655 168.243C463.231 160.235 460.69 153.829 460.182 154.336C460.065 154.454 460.26 155.118 460.612 155.782C460.964 156.485 461.081 156.954 460.886 156.797C460.26 156.407 454.552 148.829 454.552 148.399C454.552 148.164 453.692 146.211 452.597 144.063C451.542 141.914 450.643 140.079 450.643 139.961C450.643 139.141 451.698 140.743 453.379 144.063C454.435 146.172 455.49 148.008 455.725 148.164C456.312 148.516 455.647 146.914 453.145 141.914C451.151 137.969 449.743 135.664 450.486 137.579C451.19 139.375 449.626 137.344 444.622 129.805C441.69 125.391 438.21 120.469 436.959 118.868C435.669 117.266 434.613 115.743 434.613 115.508C434.613 115.274 433.988 114.063 433.245 112.813C432.502 111.563 431.877 110.352 431.877 110.039C431.877 109.336 433.988 111.446 434.848 113.047C435.239 113.789 435.747 114.375 435.903 114.375C436.451 114.375 435.943 113.438 433.636 110.079C431.368 106.914 427.771 103.438 426.677 103.438C426.09 103.438 418.584 95.8207 418.584 95.1957C418.584 95.0004 417.997 94.6098 417.333 94.2973C415.886 93.6332 407.715 86.0551 408.067 85.7035C408.458 85.2739 415.143 90.5473 418.271 93.7504C419.913 95.4301 421.555 96.7973 421.868 96.7973C422.884 96.7973 429.062 102.266 435.2 108.594C441.885 115.43 443.449 117.383 446.538 122.579C447.789 124.61 449.548 127.383 450.486 128.75C451.425 130.118 452.206 131.329 452.206 131.485C452.206 131.954 460.338 144.063 460.651 144.063C460.768 144.063 460.651 143.711 460.417 143.243C460.143 142.813 460.026 142.344 460.143 142.266C460.338 142.032 464.013 147.657 464.952 149.688C465.499 150.821 465.812 151.016 466.516 150.86C467.258 150.664 467.571 150.938 468.588 152.735C469.252 153.868 470.269 156.211 470.816 157.93C471.911 161.133 473.24 164.18 473.514 163.907C473.787 163.633 472.654 157.93 472.184 156.993C471.911 156.485 471.012 155.039 470.191 153.789C468.158 150.664 466.359 145.469 465.929 141.602C465.734 139.844 465.616 138.321 465.695 138.243C465.773 138.164 466.398 138.516 467.063 138.985C467.728 139.454 468.353 139.766 468.47 139.649C468.861 139.258 467.415 136.954 465.382 134.766C462.098 131.172 460.417 128.985 460.417 128.321C460.417 127.969 459.908 127.11 459.283 126.407C458.032 124.961 454.787 118.282 455.334 118.282C455.53 118.282 456.155 118.946 456.742 119.727C457.367 120.547 457.993 121.368 458.149 121.602C458.892 122.461 456.585 117.735 453.575 112.227C449.157 104.141 447.515 100.86 447.515 99.9614C447.515 98.8676 439.969 89.5317 438.836 89.2192C438.327 89.102 437.545 88.9848 437.076 88.9848C436.607 88.9848 435.434 88.3598 434.457 87.6176C433.44 86.8754 432.541 86.2504 432.424 86.2504C432.15 86.2504 435.786 90.977 436.568 91.641C438.093 92.9301 438.601 92.852 437.35 91.5239C436.373 90.4692 436.216 90.1176 436.764 90.352C437.194 90.5082 438.054 90.7426 438.679 90.8598C440.556 91.1723 444.426 96.6801 447.749 103.75C448.688 105.782 449.431 107.539 449.352 107.579C449.274 107.657 448.258 106.758 447.124 105.586C445.951 104.414 444.778 103.438 444.544 103.438C444.27 103.438 443.644 102.852 443.175 102.149C442.667 101.485 440.986 99.5317 439.422 97.891C437.858 96.2114 436.568 94.6879 436.568 94.4535C436.568 94.2192 435.122 92.5395 433.362 90.7035C431.564 88.8676 430.039 87.1879 429.961 86.9145C429.765 86.2504 427.107 83.516 426.677 83.516C426.481 83.516 426.403 83.7895 426.559 84.102C426.833 84.8832 426.559 84.8442 424.957 83.8676C423.471 82.9301 420.93 79.8051 420.93 78.8676C420.93 78.516 421.282 78.0082 421.751 77.7348C422.454 77.266 422.689 77.3051 423.432 77.9692C425.074 79.4926 427.576 80.8598 428.162 80.6254C429.023 80.3129 429.883 80.8207 432.893 83.3598C434.77 84.9614 435.473 85.352 435.63 84.9223C435.943 84.141 434.965 82.4223 432.307 79.141C429.218 75.352 427.224 73.4379 427.302 74.3754C427.341 74.8051 427.029 75.1567 426.403 75.3129C425.621 75.5082 425.426 75.7817 425.465 76.7582L425.543 77.9692L423.119 76.2895C421.829 75.391 418.897 73.7114 416.629 72.5395C413.189 70.7817 411.938 69.8442 408.81 66.7582C406.151 64.141 404.431 62.8129 402.75 62.0317C400.561 61.016 395.244 56.7192 395.674 56.2895C395.986 55.977 399.779 58.0082 403.649 60.5473C405.643 61.8754 407.363 62.852 407.481 62.7348C407.559 62.6176 406.66 61.602 405.409 60.4692C403.806 59.0239 401.616 57.6567 397.668 55.7426C391.647 52.8129 388.206 50.6645 386.916 49.0239C385.587 47.3442 386.721 47.6957 390.943 50.3129C394.814 52.6957 397.628 54.2192 398.098 54.2192C398.254 54.2192 397.198 53.1254 395.752 51.8364C392.741 49.0629 392.585 48.3598 395.478 50.6645C396.573 51.5239 398.84 53.0473 400.522 54.0239C403.688 55.9379 406.933 58.516 406.112 58.516C405.604 58.516 406.699 60.4692 407.52 60.977C408.771 61.7582 413.306 65.5864 417.567 69.3754C420.109 71.6801 422.337 73.5942 422.533 73.6723C424.409 74.3754 416.746 66.1332 411.859 62.1879C410.217 60.8598 407.402 58.477 405.604 56.9535C401.108 53.0473 398.528 51.0942 395.322 49.2192C392.116 47.3442 389.809 45.4692 391.021 45.7426C391.451 45.8598 392.116 46.0551 392.507 46.2114C393.836 46.7582 393.132 45.7817 391.256 44.5317C389.653 43.4379 389.223 43.2817 388.597 43.6723C387.972 44.0629 387.542 43.9848 386.095 43.2817C382.967 41.6801 378.159 38.3989 374.796 35.4692C370.418 31.6801 368.033 30.2348 364.084 28.8285C362.286 28.1645 356.5 25.8989 351.261 23.7114C340.431 19.2192 330.54 15.352 328.937 14.9613C328.311 14.8051 327.881 14.4145 327.881 14.0238C327.881 12.7348 327.021 12.4223 323.659 12.4223C321.861 12.4223 318.772 12.227 316.739 11.9926C311.852 11.4067 311.031 11.6801 314.315 12.7738C315.801 13.2817 316.895 13.7504 316.817 13.8676C316.465 14.1801 307.043 12.7348 304.658 11.9926C302.782 11.4457 302.273 11.4067 301.843 11.7973C301.296 12.3832 299.889 12.3051 292.695 11.4067C290.232 11.0942 287.652 10.8598 286.948 10.8598C286.244 10.8598 285.658 10.6645 285.658 10.4692C285.658 10.2348 285.071 9.8051 284.407 9.4926C283.195 8.98479 283.39 8.94572 287.612 8.94572C290.076 8.94572 294.259 9.1801 296.878 9.41447C299.537 9.68791 301.531 9.76604 301.374 9.64885C300.553 8.82854 293.633 8.04729 284.485 7.69572C279.011 7.50041 273.694 7.18791 272.678 6.9926C271.622 6.83635 270.801 6.75822 270.801 6.83635C270.801 6.91447 271.583 7.34416 272.561 7.77385C273.733 8.28166 275.61 8.63322 277.956 8.78947C280.419 8.94572 281.983 9.25822 282.921 9.76604L284.289 10.5082L282.921 10.2738C279.793 9.68791 275.884 9.33635 272.678 9.29729C270.801 9.29729 268.495 9.06291 267.595 8.75041C266.657 8.43791 264.038 8.08635 261.731 7.9301C257.509 7.65666 256.844 7.38322 257.978 6.25041C259.033 5.19572 257.665 4.92229 252.543 5.07854C248.321 5.19572 247.265 5.35197 245.702 6.13322C244.255 6.83635 243.473 6.95354 242.261 6.75822C240.658 6.48479 240.502 6.32854 241.01 5.54729C241.362 4.96135 247.891 3.5551 251.605 3.20354C253.716 3.00822 254.537 3.08635 255.241 3.51604C256.336 4.21916 262.2 4.72697 264.155 4.29729C265.093 4.10197 265.68 3.67229 266.031 2.9301C266.383 2.22697 266.97 1.75822 267.713 1.60197C268.338 1.48479 268.807 1.28947 268.69 1.21135C268.612 1.13322 266.892 0.781661 264.898 0.508223C260.363 -0.194902 252.27 -0.155839 247.383 0.547286ZM250.471 16.2895C248.947 16.7973 248.321 17.1489 248.36 17.6176C248.399 17.9692 248.399 18.2817 248.36 18.2817C248.36 18.2817 246.835 18.5551 244.998 18.8676C241.44 19.4926 230.532 19.6489 231.901 19.0629C232.331 18.8676 233.269 18.7114 233.973 18.7114C235.654 18.6723 235.224 17.891 233.504 17.891C231.979 17.891 223.026 19.5707 220.016 20.4301C218.804 20.7817 217.474 21.4067 217.044 21.7973C216.614 22.1489 215.48 22.5785 214.503 22.6957C212.47 22.9692 207.857 22.5785 207.857 22.1879C207.857 22.0317 208.404 21.6801 209.108 21.3676C212.978 19.766 204.143 21.6801 196.519 24.0629C194.486 24.727 191.515 25.6254 189.99 26.0942C188.426 26.5239 187.136 27.1098 187.136 27.3051C187.136 27.5395 187.37 27.6567 187.644 27.5395C187.957 27.4223 190.185 27.227 192.648 27.1098C196.988 26.8364 197.066 26.8754 196.167 27.5395C195.659 27.9301 194.603 28.8285 193.821 29.5707C193.039 30.2739 191.788 31.1723 191.045 31.5629C189.677 32.266 186.862 32.9692 186.237 32.8129C186.08 32.7739 184.556 33.0864 182.835 33.516C181.154 33.9457 179.473 34.2973 179.082 34.2973C178.457 34.2973 178.457 34.2582 179.082 33.5551C179.747 32.8129 179.708 32.8129 178.417 32.9301C177.088 33.0473 170.442 35.6254 169.738 36.2895C169.113 36.8754 170.129 36.6801 173.061 35.6254C174.625 35.0785 175.954 34.6879 176.033 34.8051C176.384 35.1176 172.905 36.9145 167.001 39.4926C163.796 40.8989 159.143 42.9301 156.719 44.0239C152.614 45.8598 148.509 47.3051 144.678 48.3207C142.136 48.9848 140.455 50.3129 140.299 51.7582C140.143 53.4379 138.579 54.727 133.613 57.3051C130.603 58.9067 129.352 59.8051 128.687 60.8207C128.218 61.602 127.436 62.5785 126.967 62.9692C126.537 63.3989 126.146 64.0239 126.146 64.3754C126.146 64.766 125.169 65.6645 123.918 66.5239C121.376 68.1645 119.891 69.4145 119.891 69.9223C119.891 70.6254 120.79 70.1176 124.778 67.1098C128.453 64.3364 130.447 63.3598 130.447 64.2582C130.447 64.4535 129.782 65.1176 129 65.8207C128.179 66.5239 127.749 67.0707 128.023 67.1098C128.296 67.1098 129.938 65.7426 131.737 64.0239C135.06 60.8598 137.054 59.5317 138.188 59.766C138.657 59.8832 138.305 60.2348 137.132 60.8207C136.155 61.3285 134.395 62.7348 133.144 63.9457C130.525 66.5239 127.749 68.9067 123.996 71.7973C122.51 72.9692 120.634 74.4535 119.852 75.1567C118.366 76.4457 116.88 77.1098 116.45 76.7192C116.333 76.5629 117.428 75.1957 118.953 73.6723C121.924 70.6254 121.65 70.5082 118.288 73.4379C117.076 74.4535 115.981 75.3129 115.825 75.3129C115.434 75.3129 115.551 73.3598 115.981 72.5395C116.489 71.6801 111.446 74.727 109.648 76.4067C109.022 76.9535 108.553 77.1879 108.553 76.9535C108.553 76.0551 107.654 76.4848 104.409 78.8285C100.46 81.7192 99.1309 82.1879 101.555 79.9223C103.783 77.8129 108.553 74.4926 112.072 72.6176C113.518 71.8364 116.607 69.9223 118.953 68.3598C122.354 66.0551 123.37 65.1567 124.27 63.5942C124.895 62.5004 125.286 61.641 125.208 61.641C125.091 61.641 123.292 62.9692 121.22 64.6098C118.796 66.4848 117.232 67.4614 116.841 67.3051C116.45 67.1489 115.551 67.7348 114.339 68.9457C113.323 69.9614 112.463 70.6254 112.463 70.4692C112.463 69.8832 116.059 65.0395 118.092 62.891C119.148 61.7973 119.813 60.8598 119.578 60.8598C119.343 60.8598 117.506 61.9535 115.512 63.2817C112.893 65.0004 109.569 67.9692 103.666 73.7504C99.17 78.1645 94.8303 82.227 94.0875 82.7739C93.3447 83.2817 90.3343 86.0551 87.4412 88.9067C82.0068 94.2973 77.7845 97.9301 74.2658 100.157C71.881 101.719 67.7759 103.594 67.9714 103.047C68.0496 102.852 69.2225 101.094 70.5908 99.141C72.7411 96.0942 73.2493 95.5864 73.9922 95.7817C74.9305 96.016 77.3153 93.477 85.2518 83.7114C90.4907 77.266 94.7521 72.6176 99.2482 68.477C103.666 64.3754 105.113 63.5942 101.711 67.1098C100.421 68.4379 99.7173 69.3754 100.147 69.141C101.125 68.6332 102.767 66.8754 105.582 63.3207C106.794 61.7582 108.631 59.9223 109.648 59.2582C110.742 58.477 111.212 58.2817 110.821 58.7895C110.43 59.2192 110.117 59.6489 110.117 59.727C110.117 60.1957 115.238 57.3832 117.154 55.8207C122.979 51.1723 131.15 46.4848 143.153 40.9379C147.453 38.9457 151.207 36.9926 151.519 36.5629C152.301 35.5082 156.446 32.7348 157.267 32.7348C157.814 32.7348 157.853 32.8129 157.384 33.3598C156.915 33.9457 156.954 33.9848 157.814 33.6723C159.3 33.1645 162.584 33.2426 162.779 33.8285C162.896 34.141 161.293 35.1176 158.361 36.4457C155.859 37.6567 153.865 38.7114 153.982 38.8285C154.373 39.1801 160.316 37.3442 163.209 35.977C165.086 35.1176 166.18 34.3364 166.415 33.7504C166.884 32.5395 177.636 25.7035 181.076 24.4535C184.634 23.1645 190.224 21.641 190.498 21.9145C190.615 22.0317 192.14 21.5239 193.86 20.7817C196.089 19.8442 197.144 19.5707 197.496 19.8442C198.513 20.7035 202.501 20.7035 206.097 19.8832C208.052 19.4535 212.353 18.477 215.676 17.6957C219.664 16.7973 223.143 16.2504 225.802 16.1332C228.03 16.016 229.985 15.8598 230.063 15.7426C230.181 15.6254 235.302 15.5473 241.44 15.5863C252.622 15.6254 252.622 15.6254 250.471 16.2895ZM278.229 20.2348C283.703 20.4692 292.148 20.9379 296.995 21.2504C305.245 21.8364 306.3 21.9926 314.432 23.9848C323.346 26.1332 325.575 26.7973 324.206 26.8364C322.76 26.9145 324.324 27.9301 327.217 28.7895C328.741 29.2582 331.635 30.1957 333.55 30.8207C335.505 31.4457 337.851 32.0707 338.75 32.1489C340.783 32.3442 342.972 33.0082 344.223 33.7895C344.927 34.2192 345.044 34.4535 344.693 34.8832C344.38 35.2739 344.575 35.5473 345.553 36.1723C346.96 37.0317 354.858 41.1332 355.718 41.4457C355.991 41.5239 356.148 41.7192 356.03 41.8364C355.913 41.9535 354.74 41.8364 353.489 41.5239C350.283 40.7817 349.931 40.7817 350.987 41.7192L351.925 42.5004L350.948 42.3051C350.401 42.1879 347.977 41.6801 345.514 41.1332C340.353 40.0004 340.236 40.0004 341.682 40.7817C342.269 41.0942 344.38 41.7192 346.374 42.1098C350.557 43.0082 354.076 44.3364 354.076 45.0395C354.076 45.2739 353.646 45.7035 353.098 45.9379C350.987 46.9145 341.408 43.9457 343.168 42.852C343.911 42.4223 343.324 41.9535 341.174 41.3676C340.197 41.0942 338.437 40.2739 337.264 39.5317C335.857 38.6723 334.098 38.0473 332.104 37.6567C330.423 37.3442 328.663 36.8754 328.194 36.602C327.06 36.016 325.536 34.6489 325.536 34.2192C325.536 34.0239 325.926 33.9067 326.435 33.9848C327.099 34.0629 327.256 33.9457 327.178 33.3598C327.06 32.6957 327.217 32.6567 328.546 32.852L330.032 33.0864L328.898 32.4614C328.272 32.1489 326.2 31.7192 324.324 31.5629C320.688 31.2895 319.906 30.9379 319.515 29.4535C319.319 28.6723 318.459 28.2426 313.338 26.5629C310.054 25.4692 305.87 24.2192 304.072 23.7504C300.24 22.7739 295.823 22.1879 295.823 22.6567C295.823 22.8129 296.057 22.9692 296.331 22.9692C296.605 23.0082 296.526 23.2035 296.096 23.516C295.471 23.9848 295.549 24.0629 296.878 24.3364C298.638 24.6489 301.101 25.6254 300.827 25.8989C300.749 26.016 297.504 25.6645 293.672 25.1176C285.658 23.9848 284.641 23.9457 287.612 24.8832L289.763 25.5473L285.267 25.8207C279.011 26.2114 275.962 26.1723 271.818 25.6645C267.556 25.1567 264.898 24.5317 265.132 24.141C265.25 23.9457 266.618 23.7114 268.221 23.5551C270.41 23.3598 271.349 23.3989 272.209 23.8676C273.147 24.3754 273.694 24.3754 275.024 24.0239C275.923 23.7895 276.666 23.477 276.666 23.3207C276.666 23.1645 274.594 22.6567 272.091 22.1879C262.826 20.4692 259.659 19.3364 265.171 19.6489C266.853 19.766 272.756 20.0395 278.229 20.2348ZM57.5719 130.586C56.3599 133.282 55.0306 136.797 54.6006 138.321C53.6623 141.719 52.2939 144.532 50.0654 147.852C49.1271 149.18 48.4234 150.313 48.5407 150.313C48.8535 150.313 47.4851 154.414 45.5694 159.102C44.5529 161.68 43.4191 165 43.0673 166.446C42.2462 169.922 40.6042 173.399 38.3757 176.25C37.2029 177.774 36.3428 179.454 35.7954 181.25C34.8962 184.18 35.0135 185.039 36.03 183.243L36.6555 182.149L36.4209 184.102C36.0691 186.875 31.6121 204.297 31.143 204.766C30.5175 205.391 30.6738 204.219 31.534 201.641C32.5504 198.711 32.355 197.618 31.2212 199.805C30.752 200.743 30.2438 201.485 30.1265 201.485C29.7746 201.485 30.3611 197.227 30.8693 196.133C31.3776 194.961 30.8693 194.414 30.1265 195.391C29.6182 196.133 29.5792 196.094 29.501 194.805C29.3446 191.641 30.4002 187.969 32.7068 183.555C33.4887 182.071 33.606 182.149 33.4887 184.297C33.4497 185.039 33.5278 185.547 33.6451 185.43C33.9188 185.157 36.2255 177.5 36.0691 177.383C35.9909 177.305 35.639 177.891 35.209 178.633C34.4661 180.039 34.0752 180.235 33.2151 179.688C32.8241 179.454 33.2933 177.696 35.0135 172.539C37.3592 165.469 38.2975 163.36 40.2133 160.547C41.3079 158.985 42.4808 158.36 42.4808 159.375C42.5199 159.883 45.2957 153.555 45.8431 151.797C46.0776 150.938 46.0776 150.938 45.3348 151.563C44.9048 151.954 44.3183 152.266 43.9665 152.266C43.0673 152.266 42.2462 153.438 41.5034 155.664C40.8779 157.618 40.1351 158.399 40.1351 157.188C40.1351 156.172 40.917 154.493 43.3409 150.235C45.4912 146.446 45.8431 146.055 46.625 146.25C47.6024 146.524 48.1888 145.625 48.4234 143.438C48.6189 141.797 47.7588 141.914 46.5468 143.633C45.9213 144.493 45.2957 145.235 45.1784 145.235C44.6311 145.235 48.0324 136.407 49.6354 133.555C51.3947 130.469 52.1375 129.922 53.1931 130.977C53.7795 131.602 53.8968 131.563 54.6006 130.704C55.7343 129.375 55.5389 130.235 54.1705 132.657C53.5059 133.829 53.0758 134.844 53.154 134.922C53.5059 135.274 55.2652 132.774 56.9463 129.571C58.7447 126.055 59.2921 125.196 59.5657 125.469C59.683 125.547 58.7447 127.852 57.5719 130.586ZM27.8198 205C28.1326 205.469 27.7025 208.555 27.2334 209.336C26.6079 210.274 26.4515 209.493 26.6861 207.032C26.9597 204.727 27.2725 204.141 27.8198 205ZM22.1509 219.844C22.8156 225.118 23.5193 230.118 23.7148 230.977C24.1448 232.774 24.1448 241.602 23.7148 245.039C23.5193 246.68 23.402 245 23.3629 239.375C23.2847 229.063 22.7765 227.969 20.8608 234.102C20.3134 235.821 19.4142 239.336 18.8669 241.914C18.2804 244.493 17.7331 246.758 17.6549 246.993C16.9512 248.516 18.5932 226.602 19.6097 220.625C19.9225 218.829 20.0397 217.266 19.8443 217.11C19.6879 216.993 19.6879 215.547 19.8443 213.907C20.1179 211.172 20.4698 209.805 20.7826 210.157C20.8608 210.235 21.4863 214.61 22.1509 219.844ZM25.2395 261.524C25.4741 262.149 25.9432 263.829 26.256 265.352C26.6079 266.836 27.3898 269.61 28.0153 271.446C29.2273 274.961 30.1265 281.954 29.3055 281.446C29.0709 281.29 28.7972 280.391 28.719 279.454C28.6018 278.438 27.9762 276.836 27.1943 275.625C26.0605 273.789 25.9041 273.243 25.9432 271.094C25.9823 269.336 25.865 268.672 25.5523 268.789C25.2786 268.868 25.044 269.493 24.9658 270.157C24.8094 271.758 24.2621 271.758 23.9493 270.196C23.6366 268.555 23.6366 261.055 23.9884 260.743C24.4576 260.235 24.8094 260.469 25.2395 261.524ZM9.60112 286.446V287.227L9.24925 286.446C9.05377 286.016 8.89739 285.391 8.89739 285.079C8.8583 284.571 8.89739 284.571 9.24925 285.079C9.44473 285.391 9.60112 286.016 9.60112 286.446ZM31.2994 311.485C31.6512 311.641 31.9249 312.188 31.9249 312.813C31.9249 314.532 31.2603 314.532 30.8302 312.813C30.6347 311.954 30.5175 311.25 30.5566 311.25C30.6347 311.25 30.9475 311.368 31.2994 311.485ZM37.3202 326.954C38.6494 329.805 40.6824 334.414 41.8944 337.227C43.1064 340 45.2175 344.493 46.625 347.149C47.9933 349.805 49.1271 352.188 49.1271 352.5C49.1271 353.789 48.3452 352.774 45.9995 348.516C44.592 346.016 43.4191 344.141 43.38 344.336C42.9109 345.743 51.4338 360.391 52.7631 360.508C53.0367 360.547 53.4668 360.586 53.7405 360.625C54.0141 360.625 54.7569 361.563 55.3825 362.696C56.3599 364.375 56.4381 364.727 55.9298 364.922C55.578 365.039 55.0306 365 54.6788 364.805C53.6623 364.258 49.7918 360.079 48.7753 358.399C47.3678 356.133 47.3678 356.954 48.7362 359.688C49.4008 361.016 49.7527 361.993 49.5181 361.836C48.9316 361.485 47.6024 358.711 44.1619 350.938C40.7606 343.164 39.6659 340.547 39.9396 340.547C40.0569 340.547 40.4869 341.25 40.917 342.149C41.3861 343.047 41.8553 343.672 41.9335 343.555C42.0508 343.438 40.7215 339.961 39.0013 335.782C36.3818 329.454 34.2707 323.321 34.2707 322.11C34.2707 320.938 35.2481 322.5 37.3202 326.954ZM89.5524 387.383C90.1779 388.008 90.4516 388.594 90.2561 388.75C89.826 389.024 87.4412 387.188 87.4412 386.602C87.4412 385.899 88.4968 386.29 89.5524 387.383Z" fill="url(#paint0_linear_16_319)"/>
<path d="M182.64 29.4145C181.037 30.1176 182.523 30.1567 184.399 29.4145C185.611 28.9458 185.65 28.8676 184.79 28.8676C184.243 28.8676 183.304 29.102 182.64 29.4145Z" fill="url(#paint1_linear_16_319)"/>
<path d="M157.345 39.1801C155.194 40.313 154.686 40.938 155.937 40.938C156.446 40.938 157.54 40.313 158.4 39.5708C160.238 38.0083 159.886 37.852 157.345 39.1801Z" fill="url(#paint2_linear_16_319)"/>
<path d="M144.521 44.8833C142.488 45.7036 140.455 46.4067 140.025 46.4067C139.321 46.4067 129.274 51.3286 129.274 51.6801C129.274 51.7583 129.626 51.7192 130.056 51.602C131.502 51.2114 130.838 52.1098 128.179 54.1411C125.481 56.1723 124.66 56.4848 123.957 55.7817C123.683 55.5083 122.745 55.977 121.142 57.1879C119.813 58.1645 118.718 59.0629 118.718 59.1411C118.718 59.4145 120.204 58.5551 120.477 58.1254C120.907 57.4223 121.494 57.7348 121.259 58.5161C120.907 59.5708 121.142 59.5317 123.292 57.9692C125.99 56.0551 127.397 55.4301 128.492 55.6254C129.157 55.7817 130.29 55.3129 132.089 54.2583C133.535 53.3598 134.786 52.6567 134.904 52.6567C135.021 52.6567 135.959 52.0708 136.976 51.3676C138.031 50.6254 140.807 48.8676 143.192 47.4614C150.581 43.0473 150.972 42.227 144.521 44.8833Z" fill="url(#paint3_linear_16_319)"/>
<path d="M89.9824 82.6176C88.4185 83.4379 87.0502 84.6879 87.0502 85.352C87.0502 86.2504 87.5975 85.9379 89.5914 83.9067C91.7026 81.7583 91.7026 81.6801 89.9824 82.6176Z" fill="url(#paint4_linear_16_319)"/>
<path d="M78.2928 94.9223C77.7454 95.6255 77.3936 96.2505 77.5108 96.3677C77.6672 96.563 78.5664 95.5473 79.2702 94.3364C79.8957 93.2427 79.3484 93.5552 78.2928 94.9223Z" fill="url(#paint5_linear_16_319)"/>
<path d="M278.62 24.5317C278.62 24.727 279.363 24.9223 280.301 24.8832C281.709 24.8442 281.787 24.8051 280.966 24.5317C279.559 24.0629 278.62 24.0629 278.62 24.5317Z" fill="url(#paint6_linear_16_319)"/>
<path d="M340.979 37.2661C341.8 38.1255 345.357 39.6099 345.748 39.2192C345.905 39.1021 340.666 36.2505 340.275 36.2505C340.118 36.2505 340.47 36.7192 340.979 37.2661Z" fill="url(#paint7_linear_16_319)"/>
<path d="M50.3782 141.407C49.2835 143.165 48.1889 146.016 48.5016 146.29C48.6189 146.407 49.3617 145.157 50.1437 143.516C51.5902 140.313 51.7466 139.219 50.3782 141.407Z" fill="url(#paint8_linear_16_319)"/>
<path d="M279.011 2.50043C278.464 2.77386 276.861 3.12543 275.454 3.28168C274.007 3.39886 272.6 3.6723 272.326 3.86761C271.192 4.57074 272.521 4.68793 276.079 4.21918C278.112 3.94574 280.419 3.82855 281.162 3.94574C282.686 4.18011 282.647 3.86761 281.044 2.7348C280.145 2.1098 279.872 2.07074 279.011 2.50043Z" fill="url(#paint9_linear_16_319)"/>
<path d="M201.601 4.60985C185.22 7.38329 173.452 9.96141 173.452 10.8208C173.452 10.977 173.843 11.3286 174.351 11.5239C175.173 11.9145 175.094 11.9927 173.061 12.9692C170.403 14.2192 169.738 14.2583 170.325 13.2427C171.341 11.3286 167.822 12.0708 164.929 14.3755C163.874 15.2349 162.857 15.938 162.701 15.938C162.31 15.938 157.032 19.4145 157.032 19.688C157.032 19.9224 158.244 19.2974 160.003 18.0864C161.411 17.1489 165.477 16.0552 165.946 16.5239C166.102 16.6802 165.594 17.3052 164.851 17.9302C164.108 18.5161 163.639 19.063 163.796 19.063C164.382 19.063 166.376 17.8911 166.689 17.3442C166.845 17.0708 168.604 16.3286 170.52 15.7427C172.475 15.1958 175.994 13.6724 178.339 12.4224C184.556 9.18016 191.124 7.22704 194.564 7.61766C195.932 7.77391 197.418 7.46141 201.21 6.21141C206.371 4.53173 210.32 3.8286 210.75 4.53173C210.867 4.7661 210.242 5.03954 209.147 5.19579C205.667 5.7036 197.692 8.55516 197.692 9.25829C197.692 9.41454 199.295 9.1411 201.289 8.63329C203.282 8.12548 207.27 7.42235 210.202 7.07079C213.096 6.71923 215.559 6.36766 215.637 6.28954C215.754 6.21141 215.441 5.89891 214.972 5.54735C213.877 4.7661 213.877 4.37548 215.129 3.24266C215.754 2.65673 215.95 2.2661 215.637 2.30516C215.324 2.30516 209.03 3.35985 201.601 4.60985Z" fill="url(#paint10_linear_16_319)"/>
<path d="M223.495 3.04733C223.065 3.32077 223.3 3.43796 224.394 3.43796C225.176 3.43796 225.841 3.24265 225.841 3.04733C225.841 2.53952 224.277 2.53952 223.495 3.04733Z" fill="url(#paint11_linear_16_319)"/>
<path d="M185.572 10.8598C185.259 11.0551 185.181 11.2505 185.377 11.2505C185.611 11.2505 186.041 11.0551 186.354 10.8598C186.667 10.6645 186.784 10.4692 186.549 10.4692C186.354 10.4692 185.885 10.6645 185.572 10.8598Z" fill="url(#paint12_linear_16_319)"/>
<path d="M244.411 28.8676C243.981 29.0238 242.926 29.1801 242.105 29.1801C240.932 29.2191 240.658 29.3363 240.971 29.6488C241.479 30.1566 245.78 29.766 245.78 29.2191C245.78 28.6723 245.233 28.516 244.411 28.8676Z" fill="url(#paint13_linear_16_319)"/>
<path d="M321.939 40.8208C322.212 40.9379 322.564 40.8989 322.681 40.7817C322.838 40.6645 322.603 40.5473 322.173 40.5864C321.743 40.5864 321.626 40.7036 321.939 40.8208Z" fill="url(#paint14_linear_16_319)"/>
<path d="M185.337 42.188L184.595 43.0864L185.494 42.3442C186.315 41.6411 186.549 41.3286 186.237 41.3286C186.158 41.3286 185.767 41.7192 185.337 42.188Z" fill="url(#paint15_linear_16_319)"/>
<path d="M321.196 44.0629C322.173 44.4926 323.229 44.8051 323.542 44.727C324.285 44.5317 322.408 43.7114 320.649 43.4379C319.671 43.2817 319.749 43.3989 321.196 44.0629Z" fill="url(#paint16_linear_16_319)"/>
<path d="M94.2048 54.2583C92.0936 56.0942 91.429 57.1098 93.1492 55.8989C94.4393 54.9614 96.7069 52.6567 96.316 52.6567C96.1987 52.6567 95.2604 53.3989 94.2048 54.2583Z" fill="url(#paint17_linear_16_319)"/>
<path d="M405.291 55.1958C405.291 55.3911 408.654 57.7348 408.966 57.7348C409.631 57.7348 409.005 57.0317 407.481 56.0551C405.839 55.0395 405.291 54.8051 405.291 55.1958Z" fill="url(#paint18_linear_16_319)"/>
<path d="M88.8095 58.5551C86.6201 60.7817 87.4802 60.5473 90.1778 58.1645C91.2334 57.227 91.7026 56.563 91.3507 56.563C90.9989 56.563 89.8651 57.4614 88.8095 58.5551Z" fill="url(#paint19_linear_16_319)"/>
<path d="M67.6586 77.7739C64.8437 80.8208 62.0288 83.9458 61.4032 84.6879C60.4258 85.9379 60.3867 85.977 61.2469 85.2739C61.7942 84.8442 63.1235 83.6723 64.2572 82.6567C65.3519 81.602 66.6421 80.7817 67.0331 80.7817C68.0105 80.7817 70.1998 78.1254 71.7637 74.9614C72.4674 73.6333 72.9756 72.4614 72.8975 72.3833C72.8193 72.3051 70.4735 74.727 67.6586 77.7739Z" fill="url(#paint20_linear_16_319)"/>
<path d="M96.1205 91.9536C94.4002 93.438 94.0875 94.063 95.104 94.063C95.534 94.063 95.6513 94.2974 95.4167 94.9224C95.1431 95.7817 95.1822 95.7817 96.0814 95.1177C97.4106 94.1411 99.4045 93.2817 100.304 93.2817C101.086 93.2817 101.711 92.2661 101.164 91.9145C100.968 91.8364 100.03 92.0317 99.0136 92.3833C96.9415 93.1645 96.4723 92.9302 97.3715 91.5239C98.2316 90.2349 98.0362 90.2739 96.1205 91.9536Z" fill="url(#paint21_linear_16_319)"/>
<path d="M52.6067 94.5708C50.4564 97.2661 50.6519 97.6958 52.8022 95.0395C53.6232 94.0629 54.1314 93.2817 53.9359 93.2817C53.7796 93.2817 53.154 93.8676 52.6067 94.5708Z" fill="url(#paint22_linear_16_319)"/>
<path d="M41.9335 117.5C41.3861 118.36 40.917 119.102 40.917 119.219C40.917 119.297 41.5425 119.063 42.2854 118.711C43.3409 118.243 43.6146 117.852 43.6537 116.993C43.6537 115.508 43.1455 115.665 41.9335 117.5Z" fill="url(#paint23_linear_16_319)"/>
<path d="M73.6403 121.875C70.278 127.461 69.457 129.141 69.457 130.274C69.457 131.368 70.5126 130.079 73.4057 125.469C75.0868 122.735 76.1033 120.782 75.947 120.391C75.8297 120.079 76.0642 119.102 76.5334 118.204C76.9635 117.344 77.2371 116.563 77.1589 116.485C77.0807 116.368 75.4778 118.829 73.6403 121.875Z" fill="url(#paint24_linear_16_319)"/>
<path d="M462.606 148.516C462.997 149.493 463.075 150.118 462.802 150.274C462.567 150.43 462.958 151.172 463.74 152.071C464.444 152.93 465.147 153.516 465.304 153.36C465.616 153.047 463.818 149.375 462.645 147.891C462.02 147.032 461.981 147.032 462.606 148.516Z" fill="url(#paint25_linear_16_319)"/>
<path d="M473.357 150.118C473.436 150.313 474.061 151.563 474.726 152.852C476.993 157.227 481.45 169.454 480.786 169.454C480.356 169.454 478.792 167.696 478.792 167.227C478.792 165.704 474.687 153.907 474.257 154.297C474.217 154.375 474.921 156.993 475.859 160.079C477.736 166.25 478.323 169.063 477.697 169.063C477.502 169.063 476.915 168.047 476.407 166.797C475.899 165.586 475.429 164.844 475.351 165.157C475.234 165.899 479.652 174.063 479.886 173.438C479.965 173.165 479.769 172.149 479.417 171.133C478.674 168.985 478.635 168.516 479.222 168.907C479.847 169.297 481.685 173.438 482.662 176.68C483.288 178.79 483.679 179.532 484.461 179.883C485.008 180.118 485.438 180.196 485.438 180C485.438 179.844 484.93 178.438 484.265 176.875C483.64 175.313 483.092 173.868 483.092 173.633C483.092 172.735 484.304 174.375 485.008 176.329C485.438 177.461 486.142 178.75 486.572 179.18C486.963 179.571 487.393 180.157 487.471 180.43C487.588 180.743 487.823 180.86 487.979 180.704C489.074 179.688 481.059 161.055 476.524 153.946C474.765 151.211 472.849 148.907 473.357 150.118Z" fill="url(#paint26_linear_16_319)"/>
<path d="M467.454 154.766C467.454 155.196 470.699 160.899 470.855 160.743C471.09 160.469 468.118 154.61 467.767 154.61C467.61 154.61 467.454 154.688 467.454 154.766Z" fill="url(#paint27_linear_16_319)"/>
<path d="M468.47 160.079C468.705 161.446 469.213 162.344 469.565 161.993C469.682 161.915 469.409 161.133 468.979 160.274L468.236 158.711L468.47 160.079Z" fill="url(#paint28_linear_16_319)"/>
<path d="M459.869 170.743C459.987 171.133 460.221 171.329 460.338 171.211C460.456 171.094 460.338 170.782 460.065 170.508C459.674 170.157 459.635 170.196 459.869 170.743Z" fill="url(#paint29_linear_16_319)"/>
<path d="M464.991 173.321C465.773 174.649 466.477 175.625 466.594 175.547C466.867 175.274 464.561 171.29 464.053 171.094C463.779 171.016 464.209 172.032 464.991 173.321Z" fill="url(#paint30_linear_16_319)"/>
<path d="M461.589 172.032C461.589 172.774 462.528 174.727 467.102 183.516C468.079 185.352 469.057 187.344 469.33 188.008C469.761 189.102 469.761 189.024 469.643 187.032C469.526 185.86 469.252 183.946 469.018 182.813C468.666 181.211 468.392 180.782 467.806 180.782C467.258 180.782 466.555 179.766 465.069 176.758C464.013 174.571 462.762 172.422 462.332 171.993C461.589 171.25 461.589 171.25 461.589 172.032Z" fill="url(#paint31_linear_16_319)"/>
<path d="M477.228 175.196C477.228 175.938 480.395 184.766 481.255 186.524C482.271 188.555 484.148 196.875 484.539 201.29C484.812 204.258 486.024 206.915 486.728 206.211C486.963 205.977 487.51 205.782 487.901 205.782C488.683 205.782 488.683 206.016 487.901 201.68C487.51 199.727 488.292 200.938 489.934 204.961C490.794 207.071 491.693 208.79 491.889 208.829C492.671 208.946 492.28 202.149 491.146 196.524C490.129 191.368 489.973 191.016 489.308 191.446C488.8 191.758 488.566 192.461 488.487 194.024L488.37 196.172L486.884 193.907C485.672 192.11 485.242 190.86 484.461 187.071C483.6 182.891 482.154 179.258 481.098 178.633C480.551 178.282 480.668 179.727 481.333 181.29C482.037 182.969 482.115 183.868 481.528 183.282C481.294 183.047 480.434 181.133 479.652 179.024C478.831 176.915 477.971 175.118 477.697 175C477.462 174.922 477.228 175 477.228 175.196Z" fill="url(#paint32_linear_16_319)"/>
<path d="M4.04943 204.493C3.97124 204.688 3.77576 205.469 3.61938 206.25C3.3848 207.461 3.463 207.735 3.97124 207.735C4.4013 207.735 4.55768 207.305 4.55768 205.977C4.55768 204.297 4.4013 203.868 4.04943 204.493Z" fill="url(#paint33_linear_16_319)"/>
<path d="M487.236 214.454C487.276 218.985 488.018 222.735 489.152 224.102C490.56 225.782 490.872 230.391 489.582 230.391C489.23 230.391 489.23 231.368 489.66 234.493C490.012 236.875 490.403 238.477 490.638 238.321C490.833 238.204 490.911 237.344 490.755 236.407C490.638 235.391 490.677 234.688 490.911 234.688C491.381 234.688 491.302 233.907 491.654 240.86C491.889 244.805 492.162 246.993 492.475 247.305C492.866 247.696 492.905 247.11 492.671 244.454C492.514 242.618 492.358 236.407 492.28 230.665C492.123 219.024 491.811 217.149 489.778 215.625C489.074 215.118 488.409 214.063 487.979 212.813C487.627 211.758 487.315 210.86 487.276 210.86C487.236 210.86 487.197 212.5 487.236 214.454Z" fill="url(#paint34_linear_16_319)"/>
<path d="M36.1082 223.633C35.9909 223.79 35.7955 225.586 35.6391 227.579C35.4045 230.157 35.4827 231.172 35.7955 231.172C36.0691 231.172 36.2255 230.274 36.2646 228.711L36.3037 226.29L36.8511 227.852L37.3984 229.415L37.2029 226.719C37.0465 224.18 36.5774 222.891 36.1082 223.633Z" fill="url(#paint35_linear_16_319)"/>
<path d="M475.899 270.743C475.703 273.282 475.664 275.43 475.742 275.547C476.133 275.938 476.759 269.219 476.485 267.696C476.25 266.446 476.133 267.032 475.899 270.743Z" fill="url(#paint36_linear_16_319)"/>
<path d="M1.19551 272.774C1.54738 274.844 2.25111 276.993 2.48568 276.719C2.75935 276.446 1.78195 272.071 1.3128 271.602C1.07823 271.368 1.03913 271.758 1.19551 272.774Z" fill="url(#paint37_linear_16_319)"/>
<path d="M26.0605 357.579C26.0605 357.813 26.6861 360.118 27.4289 362.657C28.8364 367.383 32.5896 375.586 33.7625 376.563C34.1534 376.836 33.9579 376.29 33.3324 375.196C32.0813 373.086 32.1595 372.344 33.4497 373.985C34.7399 375.626 34.388 374.61 32.4723 371.016C31.4558 369.18 29.6183 365.313 28.3672 362.422C27.1161 359.532 26.0605 357.344 26.0605 357.579Z" fill="url(#paint38_linear_16_319)"/>
<path d="M58.1191 358.829C58.1191 359.102 58.3928 359.961 58.7056 360.743C59.3702 362.344 59.4484 362.969 58.9011 362.618C58.08 362.11 58.5492 363.204 60.1912 365.547C61.0904 366.875 62.0287 368.243 62.2242 368.594C62.4588 368.946 63.2016 370.118 63.8662 371.172C66.2511 374.805 66.0165 376.836 63.5144 374.844C61.4032 373.204 61.9505 374.102 65.5083 378.204C68.5578 381.68 69.9261 382.618 67.2285 379.336C64.1008 375.547 64.1399 375.547 72.1937 381.719C76.807 385.235 78.3317 386.094 76.6506 384.258C76.2597 383.79 74.8913 382.618 73.6402 381.68C72.3892 380.704 71.4509 379.727 71.5291 379.493C71.6072 379.258 70.6689 377.696 69.457 376.055C68.2059 374.375 65.3128 369.883 63.0061 366.055C58.471 358.633 58.1191 358.086 58.1191 358.829Z" fill="url(#paint39_linear_16_319)"/>
<path d="M38.5712 377.461C38.5712 377.579 38.8449 378.321 39.1576 379.102C40.0177 381.172 39.8614 381.563 38.8058 379.883C37.5547 377.852 37.4374 377.813 37.5938 379.376C37.8284 382.032 41.1906 389.766 43.2236 392.461L44.2401 393.829L44.4356 392.344L44.6311 390.86L48.7361 395.821C51.5511 399.18 53.2322 401.641 54.0923 403.555C55.5779 406.836 55.7343 407.735 54.7178 406.915C53.3104 405.743 54.9524 407.969 57.5327 410.782C59.1748 412.54 61.8333 414.688 64.8828 416.758C67.5022 418.516 70.6299 420.782 71.8028 421.758C73.5621 423.282 73.7967 423.36 73.0929 422.383C72.6238 421.719 71.7246 420.665 71.0208 420.04C69.4961 418.594 68.7924 417.422 69.6134 417.735C70.0434 417.891 70.1216 417.735 70.0043 417.032C69.8089 416.251 69.9652 416.329 70.9036 417.501C71.49 418.243 73.0929 420.118 74.4613 421.641C76.7679 424.336 77.589 425.586 76.2988 424.532C75.986 424.258 75.7124 424.141 75.7124 424.258C75.7124 424.61 81.7331 430.313 85.2909 433.282C88.6531 436.133 90.0997 437.032 88.9659 435.586C88.3403 434.805 88.1449 434.649 92.9537 438.126C95.925 440.274 102.141 443.555 102.493 443.204C102.767 442.969 100.304 441.407 95.2603 438.594C89.826 435.586 85.7991 432.383 82.515 428.555C80.5602 426.29 80.4821 425.782 82.1241 426.524C83.3752 427.11 83.727 426.836 83.1797 425.782C82.7496 425.001 75.165 418.672 74.6568 418.672C74.5004 418.672 74.8913 419.18 75.5169 419.844C76.1424 420.469 76.4943 421.133 76.3379 421.29C76.2206 421.446 74.0312 419.415 71.49 416.797C68.9878 414.18 66.6421 412.032 66.2902 412.032C65.5865 412.032 58.0801 401.407 54.5223 395.313C53.2322 393.126 52.0202 391.329 51.8247 391.329C51.3165 391.329 51.3947 391.602 52.1766 392.813L52.8412 393.868L51.6292 393.008C49.6744 391.641 47.6806 389.18 46.3904 386.641C44.9438 383.751 43.771 383.321 44.8265 386.055C45.5694 388.008 44.5138 386.602 41.6989 381.954C39.0794 377.618 38.5712 376.915 38.5712 377.461Z" fill="url(#paint40_linear_16_319)"/>
<path d="M78.3708 387.461C78.5663 388.75 78.6836 388.829 79.4264 388.047C79.8565 387.618 79.8956 387.422 79.5046 387.149C78.3708 386.25 78.2145 386.29 78.3708 387.461Z" fill="url(#paint41_linear_16_319)"/>
<path d="M87.4803 392.969C88.575 393.907 89.6306 396.485 89.2005 397.149C89.0832 397.383 89.6306 397.891 90.4516 398.321C91.2726 398.711 92.5628 399.727 93.3056 400.469C94.5958 401.836 94.6349 401.875 93.6965 401.797C90.8425 401.485 93.7356 405.86 98.9745 409.766C107.615 416.211 117.037 421.094 133.965 427.93C139.165 430.04 141.589 431.211 142.566 432.149C144.287 433.79 149.174 436.836 155.273 440.04C160.629 442.852 160.238 443.243 154.1 441.172C151.95 440.43 150.112 439.922 150.034 440C149.956 440.079 152.067 441.172 154.725 442.461L159.573 444.766L160.785 444.024C161.45 443.594 162.31 443.282 162.662 443.282C163.6 443.282 168.761 445.938 168.761 446.446C168.761 446.68 168.526 446.797 168.253 446.68C167.94 446.563 166.689 446.368 165.399 446.211L163.092 445.977L164.069 446.758C165.32 447.774 168.331 448.711 171.067 448.946L173.257 449.141L171.654 448.399C169.66 447.5 169.386 447.071 170.012 446.055C170.637 445.04 170.051 444.375 167.236 443.047C166.024 442.461 165.242 441.915 165.477 441.836C166.728 441.407 177.479 444.961 179.981 446.641C180.529 446.954 180.841 447.5 180.724 447.774C180.45 448.516 183.774 449.727 189.286 450.938C191.671 451.446 195.19 452.227 197.105 452.657C199.06 453.086 201.875 454.063 203.4 454.805C205.511 455.86 206.684 456.172 208.482 456.211C211.414 456.29 215.363 455.469 215.168 454.883C215.089 454.61 213.799 454.024 212.314 453.555C210.476 453.008 209.968 452.696 210.711 452.696C211.297 452.657 211.766 452.461 211.766 452.266C211.766 451.797 209.147 451.758 208.951 452.227C208.912 452.422 206.997 451.954 204.729 451.25C199.959 449.727 200.389 449.805 200.507 450.391C200.702 451.368 193.078 450.547 189.873 449.258C189.443 449.102 189.56 448.946 190.264 448.75C191.085 448.516 190.85 448.399 188.895 448.008C184.947 447.227 180.06 445.625 179.864 445.04C179.747 444.727 178.652 444.297 177.44 444.063C176.189 443.829 173.374 443.086 171.107 442.422C168.839 441.758 166.689 441.133 166.337 441.055C165.359 440.782 165.477 440.157 166.532 440.118C167.001 440.118 165.868 439.61 164.03 438.985C162.154 438.36 158.909 436.993 156.797 435.938C152.927 433.985 146.007 429.649 145.538 428.868C145.381 428.672 145.03 428.555 144.717 428.672C143.583 429.102 138.657 425.391 138.657 424.141C138.657 423.75 138.305 423.321 137.875 423.165C136.819 422.813 133.105 420.04 127.124 415.157C122.667 411.485 118.014 408.125 117.35 408.125C117.232 408.125 114.457 406.875 111.172 405.352C104.643 402.305 98.1535 398.829 91.5463 394.883C86.7375 391.993 85.9946 391.641 87.4803 392.969Z" fill="url(#paint42_linear_16_319)"/>
<path d="M424.292 425.157C422.22 427.422 420.852 428.438 421.555 427.149C422.22 426.016 420.5 428.086 418.74 430.586C416.473 433.829 416.942 433.516 423.002 427.852C425.309 425.704 427.185 423.75 427.185 423.477C427.185 422.422 426.481 422.813 424.292 425.157Z" fill="url(#paint43_linear_16_319)"/>
<path d="M121.259 425.274L120.086 425.508L121.65 426.68C122.51 427.344 124.035 428.672 125.051 429.688C126.068 430.665 128.023 432.032 129.352 432.657C130.72 433.321 133.223 434.493 134.943 435.313C136.663 436.094 137.836 436.836 137.562 436.954C137.289 437.032 136.546 436.875 135.881 436.641C133.066 435.469 134.786 436.797 140.103 439.844C149.838 445.508 154.217 447.422 155.155 446.485C155.664 445.977 158.674 447.383 160.942 449.141C161.684 449.727 163.483 450.469 164.89 450.821C166.337 451.172 169.855 452.383 172.709 453.477C188.113 459.336 190.694 460.118 192.218 459.297C192.687 459.063 193 458.79 192.922 458.711C192.883 458.633 190.42 458.008 187.527 457.344C180.294 455.586 180.411 455.625 180.959 454.415C181.662 452.891 180.998 452.579 176.541 452.461C171.263 452.344 167.901 451.211 157.149 446.016C150.542 442.813 148.861 441.836 147.688 440.469C146.906 439.571 146.163 438.555 146.007 438.165C145.733 437.422 137.836 433.438 135.138 432.696C133.496 432.227 126.263 428.008 123.605 425.977C122.745 425.274 122.119 425.118 121.259 425.274Z" fill="url(#paint44_linear_16_319)"/>
<path d="M80.4038 432.227C83.7661 435.235 87.9103 439.415 89.5523 441.485C90.4906 442.696 93.1491 444.336 93.5401 443.946C93.5792 443.907 92.5236 442.93 91.1161 441.797C89.7478 440.665 88.614 439.571 88.614 439.375C88.614 439.18 89.005 438.985 89.4741 438.907C90.2169 438.829 89.6696 438.204 86.2682 435.157C84.0398 433.165 82.0068 431.602 81.7722 431.68C81.5767 431.758 80.6384 431.329 79.7392 430.743C77.0416 428.868 77.3153 429.454 80.4038 432.227Z" fill="url(#paint45_linear_16_319)"/>
<path d="M414.049 432.813C412.016 434.297 408.028 438.36 408.028 438.907C408.028 439.18 408.302 439.961 408.654 440.586C409.357 441.954 409.748 441.797 411.625 439.219C413.032 437.305 413.071 436.485 411.742 436.719C411.195 436.836 410.765 436.797 410.765 436.602C410.765 436.211 412.68 434.844 413.697 434.532C414.518 434.297 416.16 431.954 415.534 431.954C415.339 431.954 414.674 432.344 414.049 432.813Z" fill="url(#paint46_linear_16_319)"/>
<path d="M131.307 437.891C131.893 438.399 133.457 439.375 134.825 440.079C137.015 441.25 137.171 441.29 136.116 440.391C135.49 439.844 133.887 438.829 132.597 438.165C130.603 437.149 130.408 437.11 131.307 437.891Z" fill="url(#paint47_linear_16_319)"/>
<path d="M94.9476 445.313C95.0648 445.586 96.1204 446.602 97.3715 447.54C98.5835 448.438 101.281 450.782 103.353 452.696C105.699 454.883 107.224 456.055 107.38 455.782C107.771 455.157 109.882 456.29 116.529 460.665C119.578 462.657 124.309 465.469 127.124 466.954C130.877 468.907 131.971 469.649 131.463 469.844C130.916 470.04 131.737 470.547 134.513 471.719C136.624 472.618 138.657 473.36 139.048 473.36C139.439 473.36 142.566 474.727 146.007 476.407C149.447 478.125 153.748 480.079 155.546 480.782C157.306 481.485 159.495 482.383 160.355 482.735C163.405 484.063 178.847 489.024 185.846 490.938C202.422 495.43 222.4 498.633 238.156 499.336C240.971 499.454 245.193 499.649 247.539 499.766C252.231 499.961 252.661 499.415 248.126 498.946C246.679 498.79 245.272 498.516 244.959 498.321C244.646 498.125 244.607 497.969 244.802 497.969C245.897 497.93 243.825 497.188 242.613 497.188C240.228 497.188 237.57 496.719 237.57 496.29C237.57 496.055 239.485 495.977 243.043 496.133C246.21 496.25 248.516 496.172 248.516 495.977C248.516 495.782 248.36 495.625 248.165 495.625C247.969 495.625 247.265 495.157 246.601 494.61C244.802 493.086 240.736 492.93 234.012 494.063C230.102 494.727 227.796 494.883 224.942 494.766C222.87 494.649 221.032 494.454 220.876 494.297C220.719 494.18 220.954 493.829 221.345 493.516C222.049 493.008 222.009 492.93 220.563 492.54C219.703 492.305 217.631 491.915 215.95 491.68C214.268 491.485 211.454 490.86 209.694 490.274C207.27 489.532 206.019 489.336 204.494 489.493C202.735 489.688 202.422 489.61 202.266 488.946C202.11 488.399 201.719 488.204 200.741 488.204C199.177 488.204 187.331 485.821 183.226 484.688C181.623 484.258 177.987 483.282 175.212 482.54C172.397 481.797 167.314 480.118 163.874 478.79C157.853 476.485 155.468 475.43 157.227 475.86C157.657 475.938 158.791 476.172 159.769 476.29C162.896 476.758 161.02 475.821 156.289 474.532C151.011 473.125 150.151 472.735 150.737 472.032C151.089 471.641 150.073 471.172 146.163 469.844C143.427 468.907 138.735 467.227 135.764 466.055C132.792 464.922 130.212 464.063 130.095 464.219C129.978 464.336 130.564 465.04 131.424 465.782C132.284 466.485 132.832 467.11 132.636 467.11C131.502 467.11 122.276 461.094 122.745 460.625C122.823 460.508 123.644 460.743 124.543 461.094C125.442 461.446 126.303 461.641 126.42 461.485C126.85 461.055 126.342 460.86 122.041 459.688C119.031 458.907 117.545 458.282 116.802 457.579C114.574 455.352 117.076 455.938 125.13 459.532C133.613 463.36 131.307 461.485 121.885 456.915C118.796 455.43 115.043 453.399 113.596 452.461C112.111 451.485 110.899 450.821 110.899 450.938C110.899 451.055 111.72 451.993 112.697 453.047C114.144 454.571 114.378 455 113.792 455C112.775 455 111.055 453.907 105.621 449.766C100.265 445.665 99.4827 445.118 100.304 446.133C101.281 447.383 100.343 447.344 97.7625 446.094C94.9476 444.688 94.7521 444.649 94.9476 445.313Z" fill="url(#paint48_linear_16_319)"/>
<path d="M173.061 447.11C173.061 447.579 176.658 448.36 178.652 448.36C180.88 448.36 180.02 447.774 176.932 447.266C173.843 446.719 173.061 446.68 173.061 447.11Z" fill="url(#paint49_linear_16_319)"/>
<path d="M400.287 448.008C398.645 449.219 398.254 449.961 399.701 449.219C400.404 448.829 402.437 446.797 402.125 446.797C402.007 446.797 401.186 447.344 400.287 448.008Z" fill="url(#paint50_linear_16_319)"/>
<path d="M173.374 450.586C173.648 450.704 174 450.665 174.117 450.547C174.273 450.43 174.039 450.313 173.609 450.352C173.179 450.352 173.061 450.469 173.374 450.586Z" fill="url(#paint51_linear_16_319)"/>
<path d="M175.329 450.977C175.602 451.094 175.954 451.055 176.072 450.938C176.228 450.821 175.993 450.704 175.563 450.743C175.133 450.743 175.016 450.86 175.329 450.977Z" fill="url(#paint52_linear_16_319)"/>
<path d="M223.104 456.211C222.674 456.524 222.635 456.68 223.026 456.836C223.847 457.149 223.104 457.735 221.814 457.735C220.25 457.774 221.071 458.282 223.221 458.672C224.746 458.946 225.098 459.454 224.042 459.844C223.261 460.157 218.452 460.157 216.888 459.844C215.402 459.532 215.676 458.907 217.279 458.907C218.022 458.907 218.374 458.75 218.217 458.477C217.826 457.891 213.721 458.204 213.33 458.868C213.135 459.258 211.688 459.532 208.482 459.805C205.98 460.04 203.947 460.313 203.947 460.469C203.947 460.586 205.589 461.016 207.583 461.407C217.709 463.36 222.166 464.024 227.6 464.219C233.347 464.454 233.504 464.454 234.833 463.516C236.162 462.579 236.201 462.5 236.123 460.079C236.084 458.75 235.928 457.5 235.732 457.305C235.38 456.954 226.975 455.782 224.942 455.782C224.238 455.782 223.417 455.977 223.104 456.211Z" fill="url(#paint53_linear_16_319)"/>
<path d="M374.992 463.555C374.757 463.75 373.311 464.61 371.747 465.469C368.854 466.993 368.58 467.5 370.574 467.5C371.903 467.5 373.663 466.797 375.93 465.391C377.494 464.375 377.572 464.297 376.869 463.79C376.048 463.125 375.5 463.086 374.992 463.555Z" fill="url(#paint54_linear_16_319)"/>
<path d="M365.609 467.5C364.28 468.907 364.397 468.907 366.821 467.852C368.267 467.266 368.58 466.993 368.15 466.719C367.212 466.133 366.821 466.25 365.609 467.5Z" fill="url(#paint55_linear_16_319)"/>
<path d="M361.934 469.883C360.996 470.313 360.292 470.743 360.409 470.86C360.8 471.211 362.599 470.586 363.302 469.805C364.084 468.907 364.123 468.907 361.934 469.883Z" fill="url(#paint56_linear_16_319)"/>
<path d="M277.721 473.555C275.024 474.141 274.711 474.336 276.118 474.688C277.174 474.961 280.771 473.985 281.162 473.321C281.474 472.852 280.575 472.93 277.721 473.555Z" fill="url(#paint57_linear_16_319)"/>
<path d="M336.561 479.61C331.126 481.524 325.692 483.516 324.48 484.063C323.307 484.61 321.861 485.079 321.352 485.079C320.414 485.079 315.175 487.735 315.488 488.047C315.566 488.165 316.426 488.047 317.365 487.852C322.564 486.641 318.967 488.516 312.556 490.391C306.457 492.11 299.107 493.633 295.197 493.907L292.109 494.102L296.605 492.5C303.407 490.079 304.111 489.883 307.825 489.141C310.992 488.555 312.908 487.813 311.383 487.813C311.031 487.813 310.679 487.618 310.601 487.383C310.484 487.071 308.92 487.305 305.597 488.125C296.644 490.352 287.3 491.836 270.684 493.672C264.898 494.336 259.933 494.844 259.62 494.844C259.268 494.844 259.151 495 259.268 495.235C259.385 495.43 260.167 495.625 260.949 495.625C263.49 495.625 261.731 496.29 257.313 496.993C254.967 497.344 252.7 497.852 252.27 498.047C250.823 498.829 252.309 499.063 255.749 498.555C257.704 498.321 260.245 498.165 261.418 498.243C262.591 498.321 264.976 498.243 266.696 498.047L269.824 497.735L268.26 496.954L266.696 496.211L270.567 496.094C273.382 496.016 274.867 496.172 275.962 496.602C278.034 497.422 281.748 497.344 287.378 496.368C289.997 495.938 293.242 495.43 294.65 495.235C304.541 493.985 327.92 487.227 342.855 481.329C350.479 478.282 351.886 477.266 348.368 477.266C346.921 477.266 346.608 477.149 346.804 476.68C346.921 476.368 346.882 476.094 346.726 476.094C346.569 476.133 341.995 477.696 336.561 479.61Z" fill="url(#paint58_linear_16_319)"/>
<path d="M243.434 490.547C243.434 491.016 243.747 491.016 244.802 490.547C245.506 490.235 245.467 490.196 244.529 490.196C243.903 490.157 243.434 490.313 243.434 490.547Z" fill="url(#paint59_linear_16_319)"/>
<defs>
<linearGradient id="paint0_linear_16_319" x1="242.895" y1="0" x2="242.895" y2="491.301" gradientUnits="userSpaceOnUse">
<stop stop-color="white" stop-opacity="0.4"/>
<stop offset="1" stop-color="white" stop-opacity="0.8"/>
</linearGradient>
<linearGradient id="paint1_linear_16_319" x1="183.669" y1="28.8676" x2="183.669" y2="29.9566" gradientUnits="userSpaceOnUse">
<stop stop-color="white" stop-opacity="0.4"/>
<stop offset="1" stop-color="white" stop-opacity="0.8"/>
</linearGradient>
<linearGradient id="paint2_linear_16_319" x1="157.411" y1="38.2818" x2="157.411" y2="40.938" gradientUnits="userSpaceOnUse">
<stop stop-color="white" stop-opacity="0.4"/>
<stop offset="1" stop-color="white" stop-opacity="0.8"/>
</linearGradient>
<linearGradient id="paint3_linear_16_319" x1="133.892" y1="43.3676" x2="133.892" y2="59.2365" gradientUnits="userSpaceOnUse">
<stop stop-color="white" stop-opacity="0.4"/>
<stop offset="1" stop-color="white" stop-opacity="0.8"/>
</linearGradient>
<linearGradient id="paint4_linear_16_319" x1="89.1388" y1="82.0466" x2="89.1388" y2="85.8286" gradientUnits="userSpaceOnUse">
<stop stop-color="white" stop-opacity="0.4"/>
<stop offset="1" stop-color="white" stop-opacity="0.8"/>
</linearGradient>
<linearGradient id="paint5_linear_16_319" x1="78.5115" y1="93.676" x2="78.5115" y2="96.3918" gradientUnits="userSpaceOnUse">
<stop stop-color="white" stop-opacity="0.4"/>
<stop offset="1" stop-color="white" stop-opacity="0.8"/>
</linearGradient>
<linearGradient id="paint6_linear_16_319" x1="280.057" y1="24.1801" x2="280.057" y2="24.8882" gradientUnits="userSpaceOnUse">
<stop stop-color="white" stop-opacity="0.4"/>
<stop offset="1" stop-color="white" stop-opacity="0.8"/>
</linearGradient>
<linearGradient id="paint7_linear_16_319" x1="342.994" y1="36.2505" x2="342.994" y2="39.2834" gradientUnits="userSpaceOnUse">
<stop stop-color="white" stop-opacity="0.4"/>
<stop offset="1" stop-color="white" stop-opacity="0.8"/>
</linearGradient>
<linearGradient id="paint8_linear_16_319" x1="49.8845" y1="140.265" x2="49.8845" y2="146.297" gradientUnits="userSpaceOnUse">
<stop stop-color="white" stop-opacity="0.4"/>
<stop offset="1" stop-color="white" stop-opacity="0.8"/>
</linearGradient>
<linearGradient id="paint9_linear_16_319" x1="277.104" y1="2.21543" x2="277.104" y2="4.50043" gradientUnits="userSpaceOnUse">
<stop stop-color="white" stop-opacity="0.4"/>
<stop offset="1" stop-color="white" stop-opacity="0.8"/>
</linearGradient>
<linearGradient id="paint10_linear_16_319" x1="186.408" y1="2.30248" x2="186.408" y2="19.7366" gradientUnits="userSpaceOnUse">
<stop stop-color="white" stop-opacity="0.4"/>
<stop offset="1" stop-color="white" stop-opacity="0.8"/>
</linearGradient>
<linearGradient id="paint11_linear_16_319" x1="224.567" y1="2.66647" x2="224.567" y2="3.43796" gradientUnits="userSpaceOnUse">
<stop stop-color="white" stop-opacity="0.4"/>
<stop offset="1" stop-color="white" stop-opacity="0.8"/>
</linearGradient>
<linearGradient id="paint12_linear_16_319" x1="185.972" y1="10.4692" x2="185.972" y2="11.2505" gradientUnits="userSpaceOnUse">
<stop stop-color="white" stop-opacity="0.4"/>
<stop offset="1" stop-color="white" stop-opacity="0.8"/>
</linearGradient>
<linearGradient id="paint13_linear_16_319" x1="243.316" y1="28.6799" x2="243.316" y2="29.8847" gradientUnits="userSpaceOnUse">
<stop stop-color="white" stop-opacity="0.4"/>
<stop offset="1" stop-color="white" stop-opacity="0.8"/>
</linearGradient>
<linearGradient id="paint14_linear_16_319" x1="322.246" y1="40.5787" x2="322.246" y2="40.8915" gradientUnits="userSpaceOnUse">
<stop stop-color="white" stop-opacity="0.4"/>
<stop offset="1" stop-color="white" stop-opacity="0.8"/>
</linearGradient>
<linearGradient id="paint15_linear_16_319" x1="185.482" y1="41.3286" x2="185.482" y2="43.0864" gradientUnits="userSpaceOnUse">
<stop stop-color="white" stop-opacity="0.4"/>
<stop offset="1" stop-color="white" stop-opacity="0.8"/>
</linearGradient>
<linearGradient id="paint16_linear_16_319" x1="321.853" y1="43.3763" x2="321.853" y2="44.739" gradientUnits="userSpaceOnUse">
<stop stop-color="white" stop-opacity="0.4"/>
<stop offset="1" stop-color="white" stop-opacity="0.8"/>
</linearGradient>
<linearGradient id="paint17_linear_16_319" x1="94.2649" y1="52.6567" x2="94.2649" y2="56.4255" gradientUnits="userSpaceOnUse">
<stop stop-color="white" stop-opacity="0.4"/>
<stop offset="1" stop-color="white" stop-opacity="0.8"/>
</linearGradient>
<linearGradient id="paint18_linear_16_319" x1="407.261" y1="55.0172" x2="407.261" y2="57.7348" gradientUnits="userSpaceOnUse">
<stop stop-color="white" stop-opacity="0.4"/>
<stop offset="1" stop-color="white" stop-opacity="0.8"/>
</linearGradient>
<linearGradient id="paint19_linear_16_319" x1="89.5169" y1="56.563" x2="89.5169" y2="60.0963" gradientUnits="userSpaceOnUse">
<stop stop-color="white" stop-opacity="0.4"/>
<stop offset="1" stop-color="white" stop-opacity="0.8"/>
</linearGradient>
<linearGradient id="paint20_linear_16_319" x1="66.7697" y1="72.3814" x2="66.7697" y2="85.7323" gradientUnits="userSpaceOnUse">
<stop stop-color="white" stop-opacity="0.4"/>
<stop offset="1" stop-color="white" stop-opacity="0.8"/>
</linearGradient>
<linearGradient id="paint21_linear_16_319" x1="97.948" y1="90.6185" x2="97.948" y2="95.5937" gradientUnits="userSpaceOnUse">
<stop stop-color="white" stop-opacity="0.4"/>
<stop offset="1" stop-color="white" stop-opacity="0.8"/>
</linearGradient>
<linearGradient id="paint22_linear_16_319" x1="52.5331" y1="93.2817" x2="52.5331" y2="96.826" gradientUnits="userSpaceOnUse">
<stop stop-color="white" stop-opacity="0.4"/>
<stop offset="1" stop-color="white" stop-opacity="0.8"/>
</linearGradient>
<linearGradient id="paint23_linear_16_319" x1="42.2854" y1="115.989" x2="42.2854" y2="119.234" gradientUnits="userSpaceOnUse">
<stop stop-color="white" stop-opacity="0.4"/>
<stop offset="1" stop-color="white" stop-opacity="0.8"/>
</linearGradient>
<linearGradient id="paint24_linear_16_319" x1="73.3146" y1="116.481" x2="73.3146" y2="130.64" gradientUnits="userSpaceOnUse">
<stop stop-color="white" stop-opacity="0.4"/>
<stop offset="1" stop-color="white" stop-opacity="0.8"/>
</linearGradient>
<linearGradient id="paint25_linear_16_319" x1="463.748" y1="147.309" x2="463.748" y2="153.385" gradientUnits="userSpaceOnUse">
<stop stop-color="white" stop-opacity="0.4"/>
<stop offset="1" stop-color="white" stop-opacity="0.8"/>
</linearGradient>
<linearGradient id="paint26_linear_16_319" x1="480.677" y1="149.787" x2="480.677" y2="180.772" gradientUnits="userSpaceOnUse">
<stop stop-color="white" stop-opacity="0.4"/>
<stop offset="1" stop-color="white" stop-opacity="0.8"/>
</linearGradient>
<linearGradient id="paint27_linear_16_319" x1="469.161" y1="154.61" x2="469.161" y2="160.746" gradientUnits="userSpaceOnUse">
<stop stop-color="white" stop-opacity="0.4"/>
<stop offset="1" stop-color="white" stop-opacity="0.8"/>
</linearGradient>
<linearGradient id="paint28_linear_16_319" x1="468.914" y1="158.711" x2="468.914" y2="162.069" gradientUnits="userSpaceOnUse">
<stop stop-color="white" stop-opacity="0.4"/>
<stop offset="1" stop-color="white" stop-opacity="0.8"/>
</linearGradient>
<linearGradient id="paint29_linear_16_319" x1="460.054" y1="170.281" x2="460.054" y2="171.245" gradientUnits="userSpaceOnUse">
<stop stop-color="white" stop-opacity="0.4"/>
<stop offset="1" stop-color="white" stop-opacity="0.8"/>
</linearGradient>
<linearGradient id="paint30_linear_16_319" x1="465.293" y1="171.09" x2="465.293" y2="175.552" gradientUnits="userSpaceOnUse">
<stop stop-color="white" stop-opacity="0.4"/>
<stop offset="1" stop-color="white" stop-opacity="0.8"/>
</linearGradient>
<linearGradient id="paint31_linear_16_319" x1="465.65" y1="171.441" x2="465.65" y2="188.711" gradientUnits="userSpaceOnUse">
<stop stop-color="white" stop-opacity="0.4"/>
<stop offset="1" stop-color="white" stop-opacity="0.8"/>
</linearGradient>
<linearGradient id="paint32_linear_16_319" x1="484.763" y1="174.971" x2="484.763" y2="208.83" gradientUnits="userSpaceOnUse">
<stop stop-color="white" stop-opacity="0.4"/>
<stop offset="1" stop-color="white" stop-opacity="0.8"/>
</linearGradient>
<linearGradient id="paint33_linear_16_319" x1="4.02536" y1="204.22" x2="4.02536" y2="207.735" gradientUnits="userSpaceOnUse">
<stop stop-color="white" stop-opacity="0.4"/>
<stop offset="1" stop-color="white" stop-opacity="0.8"/>
</linearGradient>
<linearGradient id="paint34_linear_16_319" x1="490.018" y1="210.86" x2="490.018" y2="247.415" gradientUnits="userSpaceOnUse">
<stop stop-color="white" stop-opacity="0.4"/>
<stop offset="1" stop-color="white" stop-opacity="0.8"/>
</linearGradient>
<linearGradient id="paint35_linear_16_319" x1="36.4505" y1="223.425" x2="36.4505" y2="231.172" gradientUnits="userSpaceOnUse">
<stop stop-color="white" stop-opacity="0.4"/>
<stop offset="1" stop-color="white" stop-opacity="0.8"/>
</linearGradient>
<linearGradient id="paint36_linear_16_319" x1="476.128" y1="267.101" x2="476.128" y2="275.564" gradientUnits="userSpaceOnUse">
<stop stop-color="white" stop-opacity="0.4"/>
<stop offset="1" stop-color="white" stop-opacity="0.8"/>
</linearGradient>
<linearGradient id="paint37_linear_16_319" x1="1.81744" y1="271.536" x2="1.81744" y2="276.743" gradientUnits="userSpaceOnUse">
<stop stop-color="white" stop-opacity="0.4"/>
<stop offset="1" stop-color="white" stop-opacity="0.8"/>
</linearGradient>
<linearGradient id="paint38_linear_16_319" x1="30.1377" y1="357.561" x2="30.1377" y2="376.633" gradientUnits="userSpaceOnUse">
<stop stop-color="white" stop-opacity="0.4"/>
<stop offset="1" stop-color="white" stop-opacity="0.8"/>
</linearGradient>
<linearGradient id="paint39_linear_16_319" x1="67.7165" y1="358.583" x2="67.7165" y2="385.198" gradientUnits="userSpaceOnUse">
<stop stop-color="white" stop-opacity="0.4"/>
<stop offset="1" stop-color="white" stop-opacity="0.8"/>
</linearGradient>
<linearGradient id="paint40_linear_16_319" x1="70.0265" y1="377.301" x2="70.0265" y2="443.23" gradientUnits="userSpaceOnUse">
<stop stop-color="white" stop-opacity="0.4"/>
<stop offset="1" stop-color="white" stop-opacity="0.8"/>
</linearGradient>
<linearGradient id="paint41_linear_16_319" x1="79.0474" y1="386.523" x2="79.0474" y2="388.551" gradientUnits="userSpaceOnUse">
<stop stop-color="white" stop-opacity="0.4"/>
<stop offset="1" stop-color="white" stop-opacity="0.8"/>
</linearGradient>
<linearGradient id="paint42_linear_16_319" x1="150.985" y1="392.228" x2="150.985" y2="456.217" gradientUnits="userSpaceOnUse">
<stop stop-color="white" stop-opacity="0.4"/>
<stop offset="1" stop-color="white" stop-opacity="0.8"/>
</linearGradient>
<linearGradient id="paint43_linear_16_319" x1="422.336" y1="422.922" x2="422.336" y2="432.658" gradientUnits="userSpaceOnUse">
<stop stop-color="white" stop-opacity="0.4"/>
<stop offset="1" stop-color="white" stop-opacity="0.8"/>
</linearGradient>
<linearGradient id="paint44_linear_16_319" x1="156.51" y1="425.219" x2="156.51" y2="459.57" gradientUnits="userSpaceOnUse">
<stop stop-color="white" stop-opacity="0.4"/>
<stop offset="1" stop-color="white" stop-opacity="0.8"/>
</linearGradient>
<linearGradient id="paint45_linear_16_319" x1="85.7143" y1="429.656" x2="85.7143" y2="444.005" gradientUnits="userSpaceOnUse">
<stop stop-color="white" stop-opacity="0.4"/>
<stop offset="1" stop-color="white" stop-opacity="0.8"/>
</linearGradient>
<linearGradient id="paint46_linear_16_319" x1="411.851" y1="431.954" x2="411.851" y2="441.438" gradientUnits="userSpaceOnUse">
<stop stop-color="white" stop-opacity="0.4"/>
<stop offset="1" stop-color="white" stop-opacity="0.8"/>
</linearGradient>
<linearGradient id="paint47_linear_16_319" x1="133.772" y1="437.349" x2="133.772" y2="441.017" gradientUnits="userSpaceOnUse">
<stop stop-color="white" stop-opacity="0.4"/>
<stop offset="1" stop-color="white" stop-opacity="0.8"/>
</linearGradient>
<linearGradient id="paint48_linear_16_319" x1="173.098" y1="444.896" x2="173.098" y2="499.807" gradientUnits="userSpaceOnUse">
<stop stop-color="white" stop-opacity="0.4"/>
<stop offset="1" stop-color="white" stop-opacity="0.8"/>
</linearGradient>
<linearGradient id="paint49_linear_16_319" x1="176.481" y1="446.818" x2="176.481" y2="448.36" gradientUnits="userSpaceOnUse">
<stop stop-color="white" stop-opacity="0.4"/>
<stop offset="1" stop-color="white" stop-opacity="0.8"/>
</linearGradient>
<linearGradient id="paint50_linear_16_319" x1="400.482" y1="446.797" x2="400.482" y2="449.516" gradientUnits="userSpaceOnUse">
<stop stop-color="white" stop-opacity="0.4"/>
<stop offset="1" stop-color="white" stop-opacity="0.8"/>
</linearGradient>
<linearGradient id="paint51_linear_16_319" x1="173.681" y1="450.344" x2="173.681" y2="450.657" gradientUnits="userSpaceOnUse">
<stop stop-color="white" stop-opacity="0.4"/>
<stop offset="1" stop-color="white" stop-opacity="0.8"/>
</linearGradient>
<linearGradient id="paint52_linear_16_319" x1="175.636" y1="450.735" x2="175.636" y2="451.048" gradientUnits="userSpaceOnUse">
<stop stop-color="white" stop-opacity="0.4"/>
<stop offset="1" stop-color="white" stop-opacity="0.8"/>
</linearGradient>
<linearGradient id="paint53_linear_16_319" x1="220.047" y1="455.782" x2="220.047" y2="464.349" gradientUnits="userSpaceOnUse">
<stop stop-color="white" stop-opacity="0.4"/>
<stop offset="1" stop-color="white" stop-opacity="0.8"/>
</linearGradient>
<linearGradient id="paint54_linear_16_319" x1="373.291" y1="463.241" x2="373.291" y2="467.5" gradientUnits="userSpaceOnUse">
<stop stop-color="white" stop-opacity="0.4"/>
<stop offset="1" stop-color="white" stop-opacity="0.8"/>
</linearGradient>
<linearGradient id="paint55_linear_16_319" x1="366.546" y1="466.379" x2="366.546" y2="468.604" gradientUnits="userSpaceOnUse">
<stop stop-color="white" stop-opacity="0.4"/>
<stop offset="1" stop-color="white" stop-opacity="0.8"/>
</linearGradient>
<linearGradient id="paint56_linear_16_319" x1="362.093" y1="469.141" x2="362.093" y2="470.96" gradientUnits="userSpaceOnUse">
<stop stop-color="white" stop-opacity="0.4"/>
<stop offset="1" stop-color="white" stop-opacity="0.8"/>
</linearGradient>
<linearGradient id="paint57_linear_16_319" x1="278.258" y1="473.019" x2="278.258" y2="474.735" gradientUnits="userSpaceOnUse">
<stop stop-color="white" stop-opacity="0.4"/>
<stop offset="1" stop-color="white" stop-opacity="0.8"/>
</linearGradient>
<linearGradient id="paint58_linear_16_319" x1="300.958" y1="476.094" x2="300.958" y2="498.824" gradientUnits="userSpaceOnUse">
<stop stop-color="white" stop-opacity="0.4"/>
<stop offset="1" stop-color="white" stop-opacity="0.8"/>
</linearGradient>
<linearGradient id="paint59_linear_16_319" x1="244.361" y1="490.19" x2="244.361" y2="490.899" gradientUnits="userSpaceOnUse">
<stop stop-color="white" stop-opacity="0.4"/>
<stop offset="1" stop-color="white" stop-opacity="0.8"/>
</linearGradient>
</defs>
</svg>
