<svg width="16" height="16" viewBox="0 0 16 16" fill="none" xmlns="http://www.w3.org/2000/svg">
<path d="M6.92246 0.00826875C8.00148 -0.00773959 9.08094 0.000659337 10.1598 0.0326828L10.9762 0.0580734C11.7544 0.0865661 12.4206 0.129494 12.983 0.244597C13.7716 0.406096 14.4087 0.718173 14.9361 1.34128H14.9352C15.4525 1.95196 15.698 2.65511 15.8248 3.51315C15.9175 4.14079 15.9513 4.88518 15.9723 5.77194L15.9908 6.70749V6.70846C16.0057 7.57079 16.0057 8.42817 15.9908 9.2905V9.29147C15.9668 10.6047 15.9485 11.6498 15.8248 12.4868C15.698 13.3444 15.452 14.0463 14.9352 14.6567L14.9361 14.6577C14.4088 15.2808 13.7716 15.5929 12.983 15.7544C12.4206 15.8695 11.7545 15.9124 10.9762 15.9409L10.1598 15.9663C9.07732 15.9991 8.00216 16.0081 6.92344 15.9917L5.84336 15.9663C4.7043 15.9327 3.77008 15.9078 3.02012 15.7544C2.23143 15.5929 1.59442 15.2809 1.06699 14.6577V14.6567C0.550362 14.0463 0.304978 13.3442 0.178322 12.4868C0.085649 11.859 0.0526001 11.114 0.0318374 10.227L0.0132828 9.29147C-0.00236927 8.43075 -0.00336251 7.56893 0.0123062 6.70749L0.0308609 5.77194C0.0518369 4.88519 0.0856 4.14078 0.178322 3.51315C0.305116 2.65528 0.549873 1.95187 1.06699 1.34128L1.27012 1.12155C1.75594 0.642415 2.33018 0.385873 3.02012 0.244597C3.77006 0.0911434 4.70438 0.0662951 5.84336 0.0326828L6.92246 0.00826875ZM1.36582 4.10202C1.29929 4.77773 1.28265 5.61952 1.26231 6.73093C1.24693 7.57636 1.24789 8.42286 1.26328 9.26901L1.28184 10.2065C1.30237 11.0762 1.33284 11.7499 1.41465 12.3042C1.50738 12.9319 1.66002 13.3583 1.90879 13.7055L2.0211 13.8501L2.13926 13.979C2.42177 14.2612 2.76202 14.4257 3.27012 14.5298C3.88961 14.6566 4.69748 14.6823 5.88047 14.7173L6.94297 14.7417C8.00266 14.7578 9.05923 14.7495 10.1227 14.7173L10.943 14.6909C11.6979 14.6629 12.2685 14.6249 12.733 14.5298C13.3136 14.4108 13.6754 14.2124 13.982 13.8501L14.0943 13.7055C14.343 13.3583 14.4957 12.9318 14.5885 12.3042C14.6976 11.5653 14.7162 10.6145 14.7408 9.26901L14.7516 7.99948C14.7516 7.57714 14.7481 7.15456 14.7408 6.73093L14.7223 5.79245C14.7072 5.16224 14.6855 4.63539 14.6441 4.1821L10.4576 6.80905C9.59622 7.34927 8.86276 7.70353 8.06992 7.70358C7.37601 7.70351 6.72719 7.43223 5.99863 7.00241L5.68125 6.80905L1.36582 4.10202ZM6.94102 1.25827L5.88047 1.28171C4.69754 1.31662 3.8896 1.34239 3.27012 1.46921C2.76191 1.5733 2.42181 1.73867 2.13926 2.02096L2.0211 2.14889C1.85979 2.33931 1.732 2.55066 1.63242 2.8071L1.74082 2.86178L6.34531 5.75046L6.64317 5.93112C7.29934 6.31643 7.70757 6.45352 8.06992 6.45358C8.48406 6.45353 8.95777 6.27461 9.79356 5.75046L14.3912 2.86667C14.3118 2.648 14.2146 2.46127 14.0943 2.29343L13.982 2.14889C13.6754 1.78659 13.3137 1.58816 12.733 1.46921C12.2685 1.37409 11.6979 1.33603 10.943 1.30807L10.1227 1.28171C9.06237 1.25023 8.00149 1.24254 6.94102 1.25827Z" fill="#E5E7EB"/>
</svg>
