<svg width="16" height="16" viewBox="0 0 16 16" fill="none" xmlns="http://www.w3.org/2000/svg">
<path fill-rule="evenodd" clip-rule="evenodd" d="M7.38309 1.24514H5.56004C4.5532 1.24514 3.737 2.0674 3.737 3.08171C3.737 4.09602 4.5532 4.91828 5.56004 4.91828H7.38309V1.24514ZM7.38309 0H8.61905H10.4421C12.1316 0 13.501 1.37972 13.501 3.08171C13.501 4.08609 13.0242 4.97825 12.286 5.54085C13.0242 6.10347 13.501 6.99563 13.501 8.00001C13.501 9.70198 12.1316 11.0817 10.4421 11.0817C9.75899 11.0817 9.12818 10.8561 8.61905 10.4749V11.0817V12.9183C8.61905 14.6203 7.24948 16 5.56004 16C3.87059 16 2.50104 14.6203 2.50104 12.9183C2.50104 11.9138 2.97797 11.0218 3.71614 10.4591C2.97797 9.89652 2.50104 9.00437 2.50104 8.00001C2.50104 6.99563 2.97798 6.10347 3.71616 5.54086C2.97798 4.97825 2.50104 4.08609 2.50104 3.08171C2.50104 1.37972 3.87059 0 5.56004 0H7.38309ZM8.61905 1.24514V4.91828H10.4421C11.449 4.91828 12.2651 4.09602 12.2651 3.08171C12.2651 2.0674 11.449 1.24514 10.4421 1.24514H8.61905ZM5.56004 9.83656H7.38309V8.00474V8.00001V7.99527V6.16343H5.56004C4.5532 6.16343 3.737 6.98569 3.737 8.00001C3.737 9.01189 4.5493 9.83265 5.55281 9.83657L5.56004 9.83656ZM3.737 12.9183C3.737 11.9064 4.5493 11.0856 5.55281 11.0817L5.56004 11.0817H7.38309V12.9183C7.38309 13.9326 6.56688 14.7549 5.56004 14.7549C4.5532 14.7549 3.737 13.9326 3.737 12.9183ZM8.61905 7.99635C8.62101 6.98371 9.43647 6.16343 10.4421 6.16343C11.449 6.16343 12.2651 6.98569 12.2651 8.00001C12.2651 9.01432 11.449 9.83658 10.4421 9.83658C9.43647 9.83658 8.62101 9.0163 8.61905 8.00367V7.99635Z" fill="white"/>
</svg>
