<svg width="16" height="16" viewBox="0 0 16 16" xmlns="http://www.w3.org/2000/svg">
<path d="M3.94831 0.00318357C4.08482 -0.0057151 4.26329 -0.000187045 4.48347 0.0393164C4.86862 0.108511 5.37964 0.280037 6.02937 0.651621L6.31647 0.823496L6.67976 1.04322C6.70575 1.05728 6.7247 1.06526 6.7364 1.07057C6.74977 1.06907 6.77138 1.06742 6.80183 1.06178C6.89568 1.04435 7.02249 1.01247 7.22761 0.961191H7.22858L7.69343 0.861582C8.1585 0.776637 8.63113 0.735102 9.10456 0.737559H9.10944C9.74117 0.735319 10.3711 0.810704 10.9844 0.962168H10.9864L11.4122 1.06178C11.4424 1.06733 11.464 1.06903 11.4776 1.07057C11.4894 1.06522 11.5087 1.05805 11.5342 1.0442C11.6156 1.00004 11.7227 0.933728 11.8975 0.824473V0.823496L12.1846 0.652598C12.8345 0.280969 13.3454 0.109419 13.7305 0.0402929C13.9507 0.000813658 14.1292 -0.00477062 14.2657 0.00416013C14.3333 0.00861905 14.3904 0.0166907 14.4366 0.0256445C14.4596 0.0301166 14.4806 0.0347489 14.4981 0.0393164C14.5068 0.0415799 14.5152 0.0440004 14.5225 0.0461523C14.5261 0.0471865 14.53 0.0480717 14.5333 0.049082C14.5348 0.0494718 14.5367 0.0496103 14.5382 0.0500586L14.5411 0.0510351L14.5421 0.0520117C14.5417 0.054628 14.5332 0.0809009 14.4434 0.355723L14.543 0.0520117C14.7205 0.110235 14.8629 0.245213 14.9307 0.419199L14.9952 0.596934C15.2979 1.48885 15.2929 2.44449 15.0733 3.32643V3.3274C15.0617 3.37403 15.0507 3.41131 15.043 3.44361C15.0623 3.47163 15.0859 3.50382 15.1143 3.5442L15.3126 3.84889C15.7496 4.57257 16.001 5.39177 16.001 6.26393C16.001 8.0093 15.5812 9.25088 14.7696 10.1379C14.0337 10.9421 13.04 11.3779 11.9835 11.6897C12.1843 12.0684 12.3135 12.4974 12.3135 12.9846V15.3753C12.3135 15.7202 12.0334 15.9999 11.6885 16.0003C11.3434 16.0003 11.0636 15.7204 11.0635 15.3753V12.9846C11.0635 12.6816 10.9728 12.4122 10.8067 12.1477L10.7491 12.0442C10.4928 11.5107 10.6981 10.7518 11.3917 10.5608L11.7882 10.4446C12.682 10.1659 13.365 9.8216 13.8477 9.2942C14.3835 8.70848 14.751 7.80853 14.751 6.26393C14.751 5.63923 14.5723 5.0404 14.2423 4.49439L14.0919 4.26295C14.0353 4.18252 13.9746 4.09724 13.9288 4.02174C13.8832 3.94656 13.8183 3.82892 13.7901 3.67994C13.7618 3.53017 13.7795 3.39638 13.795 3.30885C13.8105 3.22141 13.8365 3.1204 13.8604 3.02467L13.919 2.7483C14.0078 2.25143 14.0004 1.75211 13.8907 1.28443C13.6296 1.34068 13.1914 1.48862 12.5596 1.88307L12.5606 1.88404C12.3997 1.98462 12.2534 2.07585 12.13 2.14283C12.0374 2.19302 11.9283 2.24613 11.8048 2.2815L11.6758 2.3108H11.6719C11.4942 2.33818 11.3255 2.31703 11.1856 2.29127C11.0446 2.26528 10.874 2.22265 10.6837 2.17506V2.17408C10.1689 2.04708 9.63964 1.98533 9.10944 1.98756H9.10358C8.57334 1.98438 8.04405 2.04749 7.52937 2.17506L7.52839 2.17408C7.33949 2.22131 7.16962 2.26427 7.02937 2.29029C6.8896 2.3162 6.71906 2.3384 6.53913 2.30982C6.36104 2.28142 6.20799 2.20995 6.08405 2.14283C5.96035 2.07581 5.8143 1.98364 5.65339 1.88307V1.88209C5.02146 1.48762 4.58333 1.33961 4.32233 1.28346C4.19217 1.83797 4.20754 2.43728 4.35358 3.02369L4.41901 3.30592C4.43486 3.39389 4.45267 3.52788 4.42487 3.67799L4.4239 3.67994C4.39535 3.83084 4.32959 3.94961 4.28425 4.02369L4.12214 4.26295C3.69599 4.86913 3.46299 5.54899 3.46296 6.26295C3.46297 7.808 3.83014 8.70827 4.36628 9.2942C4.91763 9.89662 5.72961 10.2605 6.8194 10.5608H6.82038C7.5632 10.7635 7.74418 11.6157 7.4073 12.1477C7.24086 12.4125 7.15046 12.6822 7.15046 12.9846V15.3753C7.15043 15.7203 6.87043 16 6.52546 16.0003C6.18036 16.0002 5.90048 15.7204 5.90046 15.3753V15.136C4.82216 15.3604 3.78946 15.2912 2.85163 14.8831C1.75262 14.4048 0.859207 13.495 0.192451 12.219L0.061592 11.9583L0.0186233 11.8391C-0.0520478 11.5572 0.0823802 11.255 0.354561 11.1243C0.626658 10.9937 0.946269 11.0776 1.12214 11.3088L1.18855 11.4172L1.29987 11.6399C1.86719 12.7264 2.57316 13.3992 3.35065 13.7376C4.07444 14.0524 4.92612 14.1061 5.90046 13.8538V12.9846C5.90046 12.4978 6.02867 12.0684 6.22956 11.6897C5.17337 11.3774 4.18018 10.9419 3.4444 10.1379C2.63254 9.25068 2.21297 8.00871 2.21296 6.26295C2.21299 5.26606 2.54069 4.3382 3.09968 3.54322L3.16901 3.44264L3.14069 3.32643C2.90626 2.38537 2.91583 1.36023 3.28327 0.418223L3.31159 0.354746C3.38677 0.211544 3.51554 0.101901 3.67097 0.0510351L3.8653 0.645762C3.68311 0.0890336 3.67213 0.053413 3.67194 0.0510351H3.67292L3.67585 0.0500586C3.67731 0.0495416 3.67922 0.0485764 3.68073 0.0481054C3.68396 0.0471284 3.68796 0.0462077 3.69147 0.0451758C3.69877 0.0430374 3.70728 0.0405783 3.71589 0.0383398C3.7333 0.0338242 3.75372 0.0290887 3.77644 0.0246679C3.82273 0.0156982 3.88054 0.00763121 3.94831 0.00318357Z" fill="#E5E7EB"/>
</svg>
