<svg width="16" height="16" viewBox="0 0 16 16" fill="none" xmlns="http://www.w3.org/2000/svg">
<path d="M8.00195 -0.000487901C9.72239 -0.000488024 11.0763 -0.00173689 12.1318 0.140137C13.2051 0.284422 14.0639 0.586976 14.7393 1.26221C15.4146 1.93757 15.718 2.79632 15.8623 3.86963C16.0042 4.92503 16.0029 6.27882 16.0029 7.99951C16.0029 9.71987 16.0041 11.0738 15.8623 12.1294C15.718 13.2028 15.4145 14.0614 14.7393 14.7368C14.0639 15.4122 13.2052 15.7155 12.1318 15.8599C11.0764 16.0017 9.72258 16.0005 8.00195 16.0005C6.28162 16.0005 4.9276 16.0017 3.87207 15.8599C2.79873 15.7155 1.94003 15.4122 1.26465 14.7368C0.589401 14.0614 0.28686 13.2027 0.142579 12.1294C0.00076984 11.074 0.00195351 9.72016 0.00195351 7.99951C0.00195324 6.2792 0.0007102 4.92513 0.142579 3.86963C0.286915 2.79647 0.58935 1.93751 1.26465 1.26221C1.94001 0.586998 2.79882 0.284429 3.87207 0.140137C4.92749 -0.00170186 6.28128 -0.000488033 8.00195 -0.000487901ZM8.00195 1.24951C6.2461 1.24951 4.99184 1.25138 4.03906 1.37939C3.10436 1.50504 2.55287 1.74171 2.14844 2.146C1.74407 2.55036 1.50753 3.1018 1.38184 4.03662C1.25376 4.98951 1.25195 6.24391 1.25195 7.99951C1.25195 9.75565 1.25378 11.0105 1.38184 11.9634C1.50749 12.8979 1.74419 13.4486 2.14844 13.853C2.55286 14.2575 3.10401 14.4949 4.03906 14.6206C4.99198 14.7487 6.24632 14.7505 8.00195 14.7505C9.75811 14.7505 11.013 14.7487 11.9658 14.6206C12.9004 14.4949 13.4511 14.2574 13.8555 13.853C14.2597 13.4487 14.4974 12.8979 14.623 11.9634C14.7511 11.0104 14.7529 9.75521 14.7529 7.99951C14.7529 6.24368 14.7511 4.98937 14.623 4.03662C14.4974 3.10186 14.2599 2.55041 13.8555 2.146C13.4512 1.74185 12.9002 1.50507 11.9658 1.37939C11.0129 1.25131 9.75771 1.24951 8.00195 1.24951ZM4.12012 5.82275C4.4652 5.82286 4.74512 6.10264 4.74512 6.44775V11.8823C4.74482 12.2272 4.46502 12.5072 4.12012 12.5073C3.77527 12.5072 3.49541 12.2271 3.49512 11.8823V6.44775C3.49512 6.10268 3.77509 5.82293 4.12012 5.82275ZM9.55469 5.82275C9.94235 5.8228 10.3264 5.89907 10.6846 6.04736C11.043 6.19582 11.3692 6.41368 11.6436 6.68799C11.9177 6.96216 12.1348 7.28784 12.2832 7.646C12.4316 8.00435 12.5088 8.38898 12.5088 8.77686V11.8823C12.5085 12.2271 12.2286 12.5071 11.8838 12.5073C11.5389 12.5072 11.2591 12.2271 11.2588 11.8823V8.77686C11.2588 8.55314 11.2145 8.33121 11.1289 8.12451C11.0433 7.91777 10.917 7.73001 10.7588 7.57178C10.6006 7.41366 10.4127 7.28823 10.2061 7.20264C9.99954 7.11715 9.7782 7.0728 9.55469 7.07275C9.33103 7.0728 9.10898 7.11705 8.90234 7.20264C8.6958 7.28825 8.50772 7.41369 8.34961 7.57178C8.19159 7.72988 8.06605 7.918 7.98047 8.12451C7.91628 8.27958 7.87477 8.44345 7.8584 8.60986L7.85059 8.77686V11.8823C7.85029 12.2272 7.57044 12.5072 7.22559 12.5073C6.88074 12.5072 6.60088 12.2271 6.60059 11.8823V6.44775C6.60059 6.10268 6.88055 5.82293 7.22559 5.82275C7.54508 5.8229 7.80552 6.06307 7.84277 6.37256C8.0237 6.24375 8.21769 6.13279 8.42383 6.04736C8.78212 5.89896 9.16688 5.8228 9.55469 5.82275ZM4.25195 3.50635C4.53682 3.56458 4.75098 3.81658 4.75098 4.11865C4.75083 4.42059 4.53672 4.67275 4.25195 4.73096L4.12598 4.74365H4.11914C3.77421 4.74348 3.49431 4.46359 3.49414 4.11865C3.49414 3.77358 3.77411 3.49382 4.11914 3.49365H4.12598L4.25195 3.50635Z" fill="#E5E7EB"/>
</svg>
